<mxfile host="Electron" modified="2024-10-01T12:41:06.669Z" agent="Mozilla/5.0 (Windows NT 10.0; Win64; x64) AppleWebKit/537.36 (KHTML, like Gecko) draw.io/22.1.2 Chrome/114.0.5735.289 Electron/25.9.4 Safari/537.36" etag="dTBeZnLTqBhsPmGeImLc" version="22.1.2" type="device">
  <diagram name="pko-v0.0.1" id="m8YNppsp5nKSXWjHvn1q">
    <mxGraphModel dx="787" dy="1554" grid="1" gridSize="10" guides="1" tooltips="1" connect="1" arrows="1" fold="1" page="1" pageScale="1" pageWidth="850" pageHeight="1100" math="0" shadow="0">
      <root>
        <mxCell id="0" />
        <mxCell id="1" parent="0" />
        <mxCell id="9d43khAp4z9KavK-o5Pn-1" value="dct:title string" style="rounded=0;whiteSpace=wrap;html=1;snapToPoint=1;points=[[0.1,0],[0.2,0],[0.3,0],[0.4,0],[0.5,0],[0.6,0],[0.7,0],[0.8,0],[0.9,0],[0,0.1],[0,0.3],[0,0.5],[0,0.7],[0,0.9],[0.1,1],[0.2,1],[0.3,1],[0.4,1],[0.5,1],[0.6,1],[0.7,1],[0.8,1],[0.9,1],[1,0.1],[1,0.3],[1,0.5],[1,0.7],[1,0.9]];dashed=1;" parent="1" vertex="1">
          <mxGeometry x="1090" y="-730" width="160" height="30" as="geometry" />
        </mxCell>
        <mxCell id="9d43khAp4z9KavK-o5Pn-2" value="" style="endArrow=classic;html=1;exitX=0;exitY=0.9;exitDx=0;exitDy=0;endSize=8;arcSize=0;rounded=0;edgeStyle=orthogonalEdgeStyle;entryX=0;entryY=0.1;entryDx=0;entryDy=0;" parent="1" source="9d43khAp4z9KavK-o5Pn-52" target="9d43khAp4z9KavK-o5Pn-8" edge="1">
          <mxGeometry width="50" height="50" relative="1" as="geometry">
            <mxPoint x="980" y="-186" as="sourcePoint" />
            <mxPoint x="730" y="-356" as="targetPoint" />
            <Array as="points">
              <mxPoint x="800" y="-204" />
              <mxPoint x="800" y="-348" />
            </Array>
          </mxGeometry>
        </mxCell>
        <mxCell id="9d43khAp4z9KavK-o5Pn-3" value="&lt;div&gt;pko:isCurrentVersionOf&lt;/div&gt;" style="edgeLabel;html=1;align=center;verticalAlign=middle;resizable=0;points=[];" parent="9d43khAp4z9KavK-o5Pn-2" vertex="1" connectable="0">
          <mxGeometry x="-0.1912" y="-1" relative="1" as="geometry">
            <mxPoint x="69" y="25" as="offset" />
          </mxGeometry>
        </mxCell>
        <mxCell id="9d43khAp4z9KavK-o5Pn-4" value="&lt;div&gt;&lt;b&gt;@base:&lt;/b&gt; https://w3id.org/pko#&lt;/div&gt;&lt;div&gt;&lt;b style=&quot;border-color: var(--border-color);&quot;&gt;pko:&lt;/b&gt;&amp;nbsp;https://w3id.org/pko#&lt;br&gt;&lt;/div&gt;&lt;div&gt;&lt;b&gt;pplan:&lt;/b&gt; http://purl.org/net/p-plan#&lt;br&gt;&lt;/div&gt;&lt;div&gt;&lt;b&gt;prov:&lt;/b&gt; http://www.w3.org/ns/prov#&lt;br&gt;&lt;/div&gt;&lt;div&gt;&lt;b&gt;dcat:&lt;/b&gt;&amp;nbsp;http://www.w3.org/ns/dcat#&lt;/div&gt;&lt;div&gt;&lt;b&gt;dct:&amp;nbsp;&lt;/b&gt;http://purl.org/dc/terms/&lt;/div&gt;&lt;div&gt;&lt;b&gt;time:&lt;/b&gt;&amp;nbsp;http://www.w3.org/2006/time#&lt;/div&gt;&lt;div&gt;&lt;b style=&quot;border-color: var(--border-color);&quot;&gt;adms:&lt;/b&gt;&amp;nbsp;http://www.w3.org/ns/adms#&lt;br&gt;&lt;/div&gt;&lt;div&gt;&lt;b style=&quot;border-color: var(--border-color);&quot;&gt;m4ing:&lt;/b&gt;&amp;nbsp;http://w3id.org/nfdi4ing/metadata4ing#&lt;br&gt;&lt;/div&gt;&lt;div&gt;&lt;b style=&quot;border-color: var(--border-color);&quot;&gt;pro:&lt;/b&gt;&amp;nbsp;http://purl.org/spar/pro/&lt;br&gt;&lt;/div&gt;&lt;div&gt;&lt;b&gt;schema:&lt;/b&gt; http://schema.org/&amp;nbsp;&lt;/div&gt;" style="shape=note;whiteSpace=wrap;html=1;backgroundOutline=1;darkOpacity=0.05;" parent="1" vertex="1">
          <mxGeometry x="660" y="-1080" width="290" height="170" as="geometry" />
        </mxCell>
        <mxCell id="9d43khAp4z9KavK-o5Pn-5" value="&lt;div&gt;&lt;b&gt;owl:Ontology: &lt;/b&gt;&amp;lt;https://w3id.org/pko&amp;gt;&lt;/div&gt;&lt;div&gt;&lt;b&gt;&lt;br&gt;&lt;/b&gt;&lt;/div&gt;&lt;div&gt;&lt;b style=&quot;border-color: var(--border-color);&quot;&gt;dc:title:&lt;/b&gt;&amp;nbsp;Procedural Knowledge Ontology (PKO)&lt;br&gt;&lt;/div&gt;&lt;div&gt;&lt;b&gt;rdfs:label: &lt;/b&gt;Procedural Knowledge Ontology (PKO)&lt;/div&gt;&lt;div&gt;&lt;b&gt;dct:publisher:&lt;/b&gt;&amp;nbsp;Cefriel&lt;br&gt;&lt;/div&gt;&lt;div&gt;&lt;b&gt;&lt;br&gt;&lt;/b&gt;&lt;/div&gt;&lt;div&gt;&lt;b&gt;d&lt;/b&gt;&lt;b&gt;c:creator:&lt;/b&gt;&amp;nbsp;Valentina Carriero (Cefriel)&lt;/div&gt;&lt;div&gt;&lt;b style=&quot;border-color: var(--border-color);&quot;&gt;dc:creator:&lt;/b&gt;&amp;nbsp;Mario Scrocca&amp;nbsp;(Cefriel)&lt;br&gt;&lt;/div&gt;&lt;div&gt;&lt;b style=&quot;border-color: var(--border-color);&quot;&gt;dc:contributor:&lt;/b&gt;&amp;nbsp;Irene Celino&amp;nbsp;(Cefriel)&lt;br&gt;&lt;/div&gt;&lt;div&gt;&lt;b style=&quot;border-color: var(--border-color);&quot;&gt;dc:contributor:&lt;/b&gt;&amp;nbsp;Ilaria Baroni&amp;nbsp;(Cefriel)&lt;br&gt;&lt;/div&gt;&lt;div&gt;&lt;b style=&quot;border-color: var(--border-color);&quot;&gt;dc:contributor:&lt;/b&gt;&amp;nbsp;Antonia Azzini&amp;nbsp;(Cefriel)&lt;/div&gt;&lt;div&gt;&lt;b&gt;&lt;br&gt;&lt;/b&gt;&lt;/div&gt;&lt;div&gt;&lt;b&gt;owl:versionInfo:&lt;/b&gt; 0.0.1&lt;/div&gt;&lt;div&gt;&lt;br&gt;&lt;/div&gt;&lt;div&gt;&lt;div style=&quot;border-color: var(--border-color);&quot;&gt;&lt;b style=&quot;border-color: var(--border-color);&quot;&gt;dct:license: &lt;/b&gt;&lt;span style=&quot;border-color: var(--border-color);&quot;&gt;&amp;lt;&lt;/span&gt;https://creativecommons.org/licenses/by/4.0/&amp;gt;&lt;/div&gt;&lt;/div&gt;&lt;div style=&quot;border-color: var(--border-color);&quot;&gt;&lt;br&gt;&lt;/div&gt;&lt;div style=&quot;border-color: var(--border-color);&quot;&gt;&lt;b&gt;schema:funding:&amp;nbsp;&lt;/b&gt;&amp;lt;https://doi.org/10.3030/101120323&amp;gt;&lt;br&gt;&lt;/div&gt;&lt;div&gt;&lt;/div&gt;" style="shape=document;whiteSpace=wrap;html=1;boundedLbl=1;labelBackgroundColor=#ffffff;strokeColor=#000000;fontSize=12;fontColor=#000000;size=0.08333333333333333;" parent="1" vertex="1">
          <mxGeometry x="270" y="-1080" width="350" height="360" as="geometry" />
        </mxCell>
        <mxCell id="9d43khAp4z9KavK-o5Pn-6" value="" style="endArrow=block;html=1;fontColor=#000099;exitX=0.5;exitY=0;exitDx=0;exitDy=0;endFill=0;entryX=0.9;entryY=1;entryDx=0;entryDy=0;endSize=8;arcSize=0;rounded=0;edgeStyle=orthogonalEdgeStyle;" parent="1" source="9d43khAp4z9KavK-o5Pn-8" target="9d43khAp4z9KavK-o5Pn-7" edge="1">
          <mxGeometry width="50" height="50" relative="1" as="geometry">
            <mxPoint x="1070.0299999999997" y="-336" as="sourcePoint" />
            <mxPoint x="1010.0299999999997" y="-466" as="targetPoint" />
            <Array as="points">
              <mxPoint x="1085" y="-476" />
              <mxPoint x="1051" y="-476" />
            </Array>
          </mxGeometry>
        </mxCell>
        <mxCell id="9d43khAp4z9KavK-o5Pn-7" value="pplan:Plan" style="rounded=0;whiteSpace=wrap;html=1;snapToPoint=1;points=[[0.1,0],[0.2,0],[0.3,0],[0.4,0],[0.5,0],[0.6,0],[0.7,0],[0.8,0],[0.9,0],[0,0.1],[0,0.3],[0,0.5],[0,0.7],[0,0.9],[0.1,1],[0.2,1],[0.3,1],[0.4,1],[0.5,1],[0.6,1],[0.7,1],[0.8,1],[0.9,1],[1,0.1],[1,0.3],[1,0.5],[1,0.7],[1,0.9]];fillColor=#d5e8d4;strokeColor=#82b366;" parent="1" vertex="1">
          <mxGeometry x="961" y="-696" width="100" height="30" as="geometry" />
        </mxCell>
        <mxCell id="9d43khAp4z9KavK-o5Pn-8" value="pko:Procedure" style="rounded=0;whiteSpace=wrap;html=1;snapToPoint=1;points=[[0.1,0],[0.2,0],[0.3,0],[0.4,0],[0.5,0],[0.6,0],[0.7,0],[0.8,0],[0.9,0],[0,0.1],[0,0.3],[0,0.5],[0,0.7],[0,0.9],[0.1,1],[0.2,1],[0.3,1],[0.4,1],[0.5,1],[0.6,1],[0.7,1],[0.8,1],[0.9,1],[1,0.1],[1,0.3],[1,0.5],[1,0.7],[1,0.9]];fillColor=#b0e3e6;strokeColor=#0e8088;" parent="1" vertex="1">
          <mxGeometry x="980" y="-351" width="210" height="30" as="geometry" />
        </mxCell>
        <mxCell id="9d43khAp4z9KavK-o5Pn-9" value="dcat:Resource" style="rounded=0;whiteSpace=wrap;html=1;snapToPoint=1;points=[[0.1,0],[0.2,0],[0.3,0],[0.4,0],[0.5,0],[0.6,0],[0.7,0],[0.8,0],[0.9,0],[0,0.1],[0,0.3],[0,0.5],[0,0.7],[0,0.9],[0.1,1],[0.2,1],[0.3,1],[0.4,1],[0.5,1],[0.6,1],[0.7,1],[0.8,1],[0.9,1],[1,0.1],[1,0.3],[1,0.5],[1,0.7],[1,0.9]];fillColor=#fff2cc;strokeColor=#d6b656;" parent="1" vertex="1">
          <mxGeometry x="1090" y="-760" width="160" height="30" as="geometry" />
        </mxCell>
        <mxCell id="9d43khAp4z9KavK-o5Pn-10" value="" style="endArrow=block;html=1;fontColor=#000099;exitX=0.9;exitY=0;exitDx=0;exitDy=0;endFill=0;endSize=8;arcSize=0;rounded=0;edgeStyle=orthogonalEdgeStyle;entryX=0.5;entryY=1;entryDx=0;entryDy=0;" parent="1" source="9d43khAp4z9KavK-o5Pn-8" target="9d43khAp4z9KavK-o5Pn-119" edge="1">
          <mxGeometry width="50" height="50" relative="1" as="geometry">
            <mxPoint x="1080" y="-341" as="sourcePoint" />
            <mxPoint x="1250" y="-416" as="targetPoint" />
            <Array as="points">
              <mxPoint x="1170" y="-351" />
            </Array>
          </mxGeometry>
        </mxCell>
        <mxCell id="9d43khAp4z9KavK-o5Pn-11" value="" style="endArrow=classic;html=1;exitX=0;exitY=0.7;exitDx=0;exitDy=0;entryX=0;entryY=0.1;entryDx=0;entryDy=0;endSize=8;arcSize=0;rounded=0;dashed=1;edgeStyle=orthogonalEdgeStyle;" parent="1" source="9d43khAp4z9KavK-o5Pn-49" target="9d43khAp4z9KavK-o5Pn-51" edge="1">
          <mxGeometry width="50" height="50" relative="1" as="geometry">
            <mxPoint x="745" y="-356" as="sourcePoint" />
            <mxPoint x="702" y="-326" as="targetPoint" />
            <Array as="points">
              <mxPoint x="980" y="-306" />
              <mxPoint x="870" y="-306" />
              <mxPoint x="870" y="-258" />
            </Array>
          </mxGeometry>
        </mxCell>
        <mxCell id="9d43khAp4z9KavK-o5Pn-12" value="&lt;div&gt;dcat:hasVersion&lt;/div&gt;" style="edgeLabel;html=1;align=center;verticalAlign=middle;resizable=0;points=[];" parent="9d43khAp4z9KavK-o5Pn-11" vertex="1" connectable="0">
          <mxGeometry x="-0.1912" y="-1" relative="1" as="geometry">
            <mxPoint x="33" y="21" as="offset" />
          </mxGeometry>
        </mxCell>
        <mxCell id="9d43khAp4z9KavK-o5Pn-13" value="" style="endArrow=classic;html=1;entryX=0;entryY=0.7;entryDx=0;entryDy=0;endSize=8;arcSize=0;rounded=0;dashed=1;edgeStyle=orthogonalEdgeStyle;exitX=0;exitY=0.9;exitDx=0;exitDy=0;" parent="1" source="9d43khAp4z9KavK-o5Pn-8" target="9d43khAp4z9KavK-o5Pn-51" edge="1">
          <mxGeometry width="50" height="50" relative="1" as="geometry">
            <mxPoint x="930" y="-346" as="sourcePoint" />
            <mxPoint x="716" y="-326" as="targetPoint" />
            <Array as="points">
              <mxPoint x="840" y="-324" />
              <mxPoint x="840" y="-240" />
            </Array>
          </mxGeometry>
        </mxCell>
        <mxCell id="9d43khAp4z9KavK-o5Pn-14" value="&lt;div&gt;dcat:hasCurrentVersion&lt;/div&gt;" style="edgeLabel;html=1;align=center;verticalAlign=middle;resizable=0;points=[];" parent="9d43khAp4z9KavK-o5Pn-13" vertex="1" connectable="0">
          <mxGeometry x="-0.1912" y="-1" relative="1" as="geometry">
            <mxPoint x="57" y="74" as="offset" />
          </mxGeometry>
        </mxCell>
        <mxCell id="9d43khAp4z9KavK-o5Pn-15" value="" style="endArrow=classic;html=1;entryX=0;entryY=0.5;entryDx=0;entryDy=0;endSize=8;arcSize=0;rounded=0;dashed=1;edgeStyle=orthogonalEdgeStyle;exitX=0;exitY=0.3;exitDx=0;exitDy=0;" parent="1" source="9d43khAp4z9KavK-o5Pn-52" target="9d43khAp4z9KavK-o5Pn-8" edge="1">
          <mxGeometry width="50" height="50" relative="1" as="geometry">
            <mxPoint x="744" y="-326" as="sourcePoint" />
            <mxPoint x="744" y="-356" as="targetPoint" />
            <Array as="points">
              <mxPoint x="820" y="-222" />
              <mxPoint x="820" y="-336" />
            </Array>
          </mxGeometry>
        </mxCell>
        <mxCell id="9d43khAp4z9KavK-o5Pn-16" value="&lt;div&gt;dcat:isVersionOf&lt;/div&gt;" style="edgeLabel;html=1;align=center;verticalAlign=middle;resizable=0;points=[];" parent="9d43khAp4z9KavK-o5Pn-15" vertex="1" connectable="0">
          <mxGeometry x="-0.1912" y="-1" relative="1" as="geometry">
            <mxPoint x="215" y="1" as="offset" />
          </mxGeometry>
        </mxCell>
        <mxCell id="9d43khAp4z9KavK-o5Pn-17" value="dcat:isVersionOf" style="edgeLabel;html=1;align=center;verticalAlign=middle;resizable=0;points=[];" parent="9d43khAp4z9KavK-o5Pn-15" vertex="1" connectable="0">
          <mxGeometry x="0.0846" y="1" relative="1" as="geometry">
            <mxPoint x="77" y="73" as="offset" />
          </mxGeometry>
        </mxCell>
        <mxCell id="9d43khAp4z9KavK-o5Pn-18" value="" style="endArrow=classic;html=1;exitX=1;exitY=0.7;exitDx=0;exitDy=0;endSize=8;arcSize=0;rounded=0;dashed=1;edgeStyle=orthogonalEdgeStyle;entryX=1;entryY=0.3;entryDx=0;entryDy=0;" parent="1" source="9d43khAp4z9KavK-o5Pn-49" target="9d43khAp4z9KavK-o5Pn-51" edge="1">
          <mxGeometry width="50" height="50" relative="1" as="geometry">
            <mxPoint x="1454" y="-241" as="sourcePoint" />
            <mxPoint x="1454" y="-211" as="targetPoint" />
            <Array as="points">
              <mxPoint x="1270" y="-300" />
              <mxPoint x="1270" y="-252" />
            </Array>
          </mxGeometry>
        </mxCell>
        <mxCell id="9d43khAp4z9KavK-o5Pn-19" value="&lt;div&gt;dcat:previousVersion&lt;/div&gt;" style="edgeLabel;html=1;align=center;verticalAlign=middle;resizable=0;points=[];" parent="9d43khAp4z9KavK-o5Pn-18" vertex="1" connectable="0">
          <mxGeometry x="-0.1912" y="-1" relative="1" as="geometry">
            <mxPoint x="-23" y="10" as="offset" />
          </mxGeometry>
        </mxCell>
        <mxCell id="9d43khAp4z9KavK-o5Pn-20" value="" style="endArrow=classic;html=1;exitX=1;exitY=0.833;exitDx=0;exitDy=0;endSize=8;arcSize=0;rounded=0;edgeStyle=orthogonalEdgeStyle;entryX=1;entryY=0.3;entryDx=0;entryDy=0;exitPerimeter=0;" parent="1" source="9d43khAp4z9KavK-o5Pn-51" target="9d43khAp4z9KavK-o5Pn-49" edge="1">
          <mxGeometry width="50" height="50" relative="1" as="geometry">
            <mxPoint x="1440" y="-211" as="sourcePoint" />
            <mxPoint x="1440" y="-241" as="targetPoint" />
            <Array as="points">
              <mxPoint x="1310" y="-236" />
              <mxPoint x="1310" y="-312" />
            </Array>
          </mxGeometry>
        </mxCell>
        <mxCell id="9d43khAp4z9KavK-o5Pn-21" value="&lt;div&gt;pko:nextVersion&lt;/div&gt;" style="edgeLabel;html=1;align=center;verticalAlign=middle;resizable=0;points=[];" parent="9d43khAp4z9KavK-o5Pn-20" vertex="1" connectable="0">
          <mxGeometry x="-0.1912" y="-1" relative="1" as="geometry">
            <mxPoint x="19" y="-27" as="offset" />
          </mxGeometry>
        </mxCell>
        <mxCell id="9d43khAp4z9KavK-o5Pn-22" value="pplan:Step" style="rounded=0;whiteSpace=wrap;html=1;snapToPoint=1;points=[[0.1,0],[0.2,0],[0.3,0],[0.4,0],[0.5,0],[0.6,0],[0.7,0],[0.8,0],[0.9,0],[0,0.1],[0,0.3],[0,0.5],[0,0.7],[0,0.9],[0.1,1],[0.2,1],[0.3,1],[0.4,1],[0.5,1],[0.6,1],[0.7,1],[0.8,1],[0.9,1],[1,0.1],[1,0.3],[1,0.5],[1,0.7],[1,0.9]];fillColor=#d5e8d4;strokeColor=#82b366;" parent="1" vertex="1">
          <mxGeometry x="1530" y="-46.059999999999945" width="210" height="30" as="geometry" />
        </mxCell>
        <mxCell id="9d43khAp4z9KavK-o5Pn-25" value="pplan:MultiStep" style="rounded=0;whiteSpace=wrap;html=1;snapToPoint=1;points=[[0.1,0],[0.2,0],[0.3,0],[0.4,0],[0.5,0],[0.6,0],[0.7,0],[0.8,0],[0.9,0],[0,0.1],[0,0.3],[0,0.5],[0,0.7],[0,0.9],[0.1,1],[0.2,1],[0.3,1],[0.4,1],[0.5,1],[0.6,1],[0.7,1],[0.8,1],[0.9,1],[1,0.1],[1,0.3],[1,0.5],[1,0.7],[1,0.9]];fillColor=#d5e8d4;strokeColor=#82b366;" parent="1" vertex="1">
          <mxGeometry x="1690" y="414" width="100" height="30" as="geometry" />
        </mxCell>
        <mxCell id="9d43khAp4z9KavK-o5Pn-26" value="" style="endArrow=classic;html=1;exitX=0.3;exitY=0;exitDx=0;exitDy=0;endSize=8;arcSize=0;rounded=0;dashed=1;entryX=0.6;entryY=1;entryDx=0;entryDy=0;edgeStyle=orthogonalEdgeStyle;" parent="1" source="9d43khAp4z9KavK-o5Pn-25" target="9d43khAp4z9KavK-o5Pn-54" edge="1">
          <mxGeometry width="50" height="50" relative="1" as="geometry">
            <mxPoint x="1468" y="-151.06" as="sourcePoint" />
            <mxPoint x="1656" y="163.94000000000005" as="targetPoint" />
            <Array as="points">
              <mxPoint x="1720" y="264" />
              <mxPoint x="1656" y="264" />
            </Array>
          </mxGeometry>
        </mxCell>
        <mxCell id="9d43khAp4z9KavK-o5Pn-27" value="&lt;div&gt;pko:hasStep&lt;/div&gt;" style="edgeLabel;html=1;align=center;verticalAlign=middle;resizable=0;points=[];" parent="9d43khAp4z9KavK-o5Pn-26" vertex="1" connectable="0">
          <mxGeometry x="-0.1912" y="-1" relative="1" as="geometry">
            <mxPoint x="-46" y="-33" as="offset" />
          </mxGeometry>
        </mxCell>
        <mxCell id="9d43khAp4z9KavK-o5Pn-30" value="" style="endArrow=classic;html=1;exitX=0.4;exitY=0;exitDx=0;exitDy=0;endSize=8;arcSize=0;rounded=0;dashed=1;entryX=0.7;entryY=1;entryDx=0;entryDy=0;edgeStyle=orthogonalEdgeStyle;" parent="1" source="9d43khAp4z9KavK-o5Pn-25" target="9d43khAp4z9KavK-o5Pn-54" edge="1">
          <mxGeometry width="50" height="50" relative="1" as="geometry">
            <mxPoint x="1648" y="68.94000000000005" as="sourcePoint" />
            <mxPoint x="1677" y="163.94000000000005" as="targetPoint" />
            <Array as="points">
              <mxPoint x="1730" y="214" />
              <mxPoint x="1677" y="214" />
            </Array>
          </mxGeometry>
        </mxCell>
        <mxCell id="9d43khAp4z9KavK-o5Pn-31" value="&lt;div&gt;pko:hasFirstStep&lt;/div&gt;" style="edgeLabel;html=1;align=center;verticalAlign=middle;resizable=0;points=[];" parent="9d43khAp4z9KavK-o5Pn-30" vertex="1" connectable="0">
          <mxGeometry x="-0.1912" y="-1" relative="1" as="geometry">
            <mxPoint x="-11" y="-62" as="offset" />
          </mxGeometry>
        </mxCell>
        <mxCell id="9d43khAp4z9KavK-o5Pn-32" value="" style="endArrow=classic;html=1;exitX=1;exitY=0.1;exitDx=0;exitDy=0;endSize=8;arcSize=0;rounded=0;edgeStyle=orthogonalEdgeStyle;entryX=1;entryY=0.5;entryDx=0;entryDy=0;" parent="1" source="9d43khAp4z9KavK-o5Pn-54" target="9d43khAp4z9KavK-o5Pn-56" edge="1">
          <mxGeometry width="50" height="50" relative="1" as="geometry">
            <mxPoint x="1618.03" y="-11.089999999999918" as="sourcePoint" />
            <mxPoint x="1618" y="-46.059999999999945" as="targetPoint" />
            <Array as="points">
              <mxPoint x="1910" y="107" />
              <mxPoint x="1910" y="29" />
            </Array>
          </mxGeometry>
        </mxCell>
        <mxCell id="9d43khAp4z9KavK-o5Pn-33" value="&lt;div&gt;pko:nextAlternativeStep&lt;/div&gt;" style="edgeLabel;html=1;align=center;verticalAlign=middle;resizable=0;points=[];" parent="9d43khAp4z9KavK-o5Pn-32" vertex="1" connectable="0">
          <mxGeometry x="-0.1912" y="-1" relative="1" as="geometry">
            <mxPoint x="29" y="-53" as="offset" />
          </mxGeometry>
        </mxCell>
        <mxCell id="9d43khAp4z9KavK-o5Pn-34" value="" style="endArrow=classic;html=1;exitX=1;exitY=0.7;exitDx=0;exitDy=0;endSize=8;arcSize=0;rounded=0;edgeStyle=orthogonalEdgeStyle;entryX=1;entryY=0.9;entryDx=0;entryDy=0;" parent="1" source="9d43khAp4z9KavK-o5Pn-53" target="9d43khAp4z9KavK-o5Pn-56" edge="1">
          <mxGeometry width="50" height="50" relative="1" as="geometry">
            <mxPoint x="1628" y="-6.059999999999945" as="sourcePoint" />
            <mxPoint x="1618" y="-46.059999999999945" as="targetPoint" />
            <Array as="points">
              <mxPoint x="1870" y="95" />
              <mxPoint x="1870" y="41" />
            </Array>
          </mxGeometry>
        </mxCell>
        <mxCell id="9d43khAp4z9KavK-o5Pn-35" value="&lt;div&gt;pko:nextStep&lt;/div&gt;" style="edgeLabel;html=1;align=center;verticalAlign=middle;resizable=0;points=[];" parent="9d43khAp4z9KavK-o5Pn-34" vertex="1" connectable="0">
          <mxGeometry x="-0.1912" y="-1" relative="1" as="geometry">
            <mxPoint x="-21" y="-21" as="offset" />
          </mxGeometry>
        </mxCell>
        <mxCell id="9d43khAp4z9KavK-o5Pn-36" value="" style="endArrow=classic;html=1;exitX=1;exitY=0.3;exitDx=0;exitDy=0;endSize=8;arcSize=0;rounded=0;edgeStyle=orthogonalEdgeStyle;entryX=1;entryY=0.3;entryDx=0;entryDy=0;" parent="1" source="9d43khAp4z9KavK-o5Pn-53" target="9d43khAp4z9KavK-o5Pn-57" edge="1">
          <mxGeometry width="50" height="50" relative="1" as="geometry">
            <mxPoint x="1688" y="-91.06" as="sourcePoint" />
            <mxPoint x="1658" y="24" as="targetPoint" />
            <Array as="points">
              <mxPoint x="1740" y="84" />
              <mxPoint x="1800" y="84" />
              <mxPoint x="1800" y="53" />
            </Array>
          </mxGeometry>
        </mxCell>
        <mxCell id="9d43khAp4z9KavK-o5Pn-37" value="&lt;div&gt;pko:previousStep&lt;/div&gt;" style="edgeLabel;html=1;align=center;verticalAlign=middle;resizable=0;points=[];" parent="9d43khAp4z9KavK-o5Pn-36" vertex="1" connectable="0">
          <mxGeometry x="-0.1912" y="-1" relative="1" as="geometry">
            <mxPoint x="-1" y="-22" as="offset" />
          </mxGeometry>
        </mxCell>
        <mxCell id="9d43khAp4z9KavK-o5Pn-38" value="" style="endArrow=classic;html=1;exitX=0.1;exitY=0;exitDx=0;exitDy=0;endSize=8;arcSize=0;rounded=0;dashed=1;edgeStyle=orthogonalEdgeStyle;entryX=0.9;entryY=1;entryDx=0;entryDy=0;" parent="1" source="9d43khAp4z9KavK-o5Pn-22" target="9d43khAp4z9KavK-o5Pn-52" edge="1">
          <mxGeometry width="50" height="50" relative="1" as="geometry">
            <mxPoint x="1608" y="-56" as="sourcePoint" />
            <mxPoint x="1190" y="-174" as="targetPoint" />
            <Array as="points">
              <mxPoint x="1551" y="-174" />
              <mxPoint x="1169" y="-174" />
            </Array>
          </mxGeometry>
        </mxCell>
        <mxCell id="9d43khAp4z9KavK-o5Pn-39" value="&lt;div&gt;pplan:isStepOfPlan&lt;/div&gt;" style="edgeLabel;html=1;align=center;verticalAlign=middle;resizable=0;points=[];" parent="9d43khAp4z9KavK-o5Pn-38" vertex="1" connectable="0">
          <mxGeometry x="-0.1912" y="-1" relative="1" as="geometry">
            <mxPoint x="18" y="4" as="offset" />
          </mxGeometry>
        </mxCell>
        <mxCell id="9d43khAp4z9KavK-o5Pn-40" value="pplan:Variable" style="rounded=0;whiteSpace=wrap;html=1;snapToPoint=1;points=[[0.1,0],[0.2,0],[0.3,0],[0.4,0],[0.5,0],[0.6,0],[0.7,0],[0.8,0],[0.9,0],[0,0.1],[0,0.3],[0,0.5],[0,0.7],[0,0.9],[0.1,1],[0.2,1],[0.3,1],[0.4,1],[0.5,1],[0.6,1],[0.7,1],[0.8,1],[0.9,1],[1,0.1],[1,0.3],[1,0.5],[1,0.7],[1,0.9]];fillColor=#d5e8d4;strokeColor=#82b366;" parent="1" vertex="1">
          <mxGeometry x="1950" y="-46.059999999999945" width="100" height="30" as="geometry" />
        </mxCell>
        <mxCell id="9d43khAp4z9KavK-o5Pn-41" value="" style="endArrow=classic;html=1;exitX=1;exitY=0.7;exitDx=0;exitDy=0;endSize=8;arcSize=0;rounded=0;dashed=1;edgeStyle=orthogonalEdgeStyle;entryX=0;entryY=0.7;entryDx=0;entryDy=0;" parent="1" source="9d43khAp4z9KavK-o5Pn-22" target="9d43khAp4z9KavK-o5Pn-40" edge="1">
          <mxGeometry width="50" height="50" relative="1" as="geometry">
            <mxPoint x="2008" y="-96.02999999999997" as="sourcePoint" />
            <mxPoint x="2008" y="-126.02999999999997" as="targetPoint" />
          </mxGeometry>
        </mxCell>
        <mxCell id="9d43khAp4z9KavK-o5Pn-42" value="&lt;div&gt;pplan:hasOutputVar&lt;/div&gt;" style="edgeLabel;html=1;align=center;verticalAlign=middle;resizable=0;points=[];" parent="9d43khAp4z9KavK-o5Pn-41" vertex="1" connectable="0">
          <mxGeometry x="-0.1912" y="-1" relative="1" as="geometry">
            <mxPoint x="-5" y="-2" as="offset" />
          </mxGeometry>
        </mxCell>
        <mxCell id="9d43khAp4z9KavK-o5Pn-43" value="" style="endArrow=classic;html=1;exitX=1;exitY=0.1;exitDx=0;exitDy=0;endSize=8;arcSize=0;rounded=0;dashed=1;edgeStyle=orthogonalEdgeStyle;entryX=0;entryY=0.3;entryDx=0;entryDy=0;" parent="1" source="9d43khAp4z9KavK-o5Pn-22" target="9d43khAp4z9KavK-o5Pn-40" edge="1">
          <mxGeometry width="50" height="50" relative="1" as="geometry">
            <mxPoint x="1578" y="-61" as="sourcePoint" />
            <mxPoint x="1778" y="-176" as="targetPoint" />
            <Array as="points">
              <mxPoint x="1740" y="-37" />
            </Array>
          </mxGeometry>
        </mxCell>
        <mxCell id="9d43khAp4z9KavK-o5Pn-44" value="&lt;div&gt;pplan:hasInputVar&lt;/div&gt;" style="edgeLabel;html=1;align=center;verticalAlign=middle;resizable=0;points=[];" parent="9d43khAp4z9KavK-o5Pn-43" vertex="1" connectable="0">
          <mxGeometry x="-0.1912" y="-1" relative="1" as="geometry">
            <mxPoint x="-1" y="-2" as="offset" />
          </mxGeometry>
        </mxCell>
        <mxCell id="9d43khAp4z9KavK-o5Pn-45" value="dct:description string" style="rounded=0;whiteSpace=wrap;html=1;snapToPoint=1;points=[[0.1,0],[0.2,0],[0.3,0],[0.4,0],[0.5,0],[0.6,0],[0.7,0],[0.8,0],[0.9,0],[0,0.1],[0,0.3],[0,0.5],[0,0.7],[0,0.9],[0.1,1],[0.2,1],[0.3,1],[0.4,1],[0.5,1],[0.6,1],[0.7,1],[0.8,1],[0.9,1],[1,0.1],[1,0.3],[1,0.5],[1,0.7],[1,0.9]];dashed=1;" parent="1" vertex="1">
          <mxGeometry x="1090" y="-701" width="160" height="30" as="geometry" />
        </mxCell>
        <mxCell id="9d43khAp4z9KavK-o5Pn-46" value="dct:identifier string" style="rounded=0;whiteSpace=wrap;html=1;snapToPoint=1;points=[[0.1,0],[0.2,0],[0.3,0],[0.4,0],[0.5,0],[0.6,0],[0.7,0],[0.8,0],[0.9,0],[0,0.1],[0,0.3],[0,0.5],[0,0.7],[0,0.9],[0.1,1],[0.2,1],[0.3,1],[0.4,1],[0.5,1],[0.6,1],[0.7,1],[0.8,1],[0.9,1],[1,0.1],[1,0.3],[1,0.5],[1,0.7],[1,0.9]];dashed=1;" parent="1" vertex="1">
          <mxGeometry x="1090" y="-672" width="160" height="30" as="geometry" />
        </mxCell>
        <mxCell id="9d43khAp4z9KavK-o5Pn-47" value="dct:language string" style="rounded=0;whiteSpace=wrap;html=1;snapToPoint=1;points=[[0.1,0],[0.2,0],[0.3,0],[0.4,0],[0.5,0],[0.6,0],[0.7,0],[0.8,0],[0.9,0],[0,0.1],[0,0.3],[0,0.5],[0,0.7],[0,0.9],[0.1,1],[0.2,1],[0.3,1],[0.4,1],[0.5,1],[0.6,1],[0.7,1],[0.8,1],[0.9,1],[1,0.1],[1,0.3],[1,0.5],[1,0.7],[1,0.9]];dashed=1;" parent="1" vertex="1">
          <mxGeometry x="1090" y="-643" width="160" height="30" as="geometry" />
        </mxCell>
        <mxCell id="9d43khAp4z9KavK-o5Pn-48" value="dct:created dateTime" style="rounded=0;whiteSpace=wrap;html=1;snapToPoint=1;points=[[0.1,0],[0.2,0],[0.3,0],[0.4,0],[0.5,0],[0.6,0],[0.7,0],[0.8,0],[0.9,0],[0,0.1],[0,0.3],[0,0.5],[0,0.7],[0,0.9],[0.1,1],[0.2,1],[0.3,1],[0.4,1],[0.5,1],[0.6,1],[0.7,1],[0.8,1],[0.9,1],[1,0.1],[1,0.3],[1,0.5],[1,0.7],[1,0.9]];dashed=1;" parent="1" vertex="1">
          <mxGeometry x="1089.95" y="-614" width="160" height="30" as="geometry" />
        </mxCell>
        <mxCell id="9d43khAp4z9KavK-o5Pn-49" value="pko:isTemplate: boolean" style="rounded=0;whiteSpace=wrap;html=1;snapToPoint=1;points=[[0.1,0],[0.2,0],[0.3,0],[0.4,0],[0.5,0],[0.6,0],[0.7,0],[0.8,0],[0.9,0],[0,0.1],[0,0.3],[0,0.5],[0,0.7],[0,0.9],[0.1,1],[0.2,1],[0.3,1],[0.4,1],[0.5,1],[0.6,1],[0.7,1],[0.8,1],[0.9,1],[1,0.1],[1,0.3],[1,0.5],[1,0.7],[1,0.9]];" parent="1" vertex="1">
          <mxGeometry x="980" y="-321" width="210" height="30" as="geometry" />
        </mxCell>
        <mxCell id="9d43khAp4z9KavK-o5Pn-50" value="pko:newVersionMotivation: string" style="rounded=0;whiteSpace=wrap;html=1;snapToPoint=1;points=[[0.1,0],[0.2,0],[0.3,0],[0.4,0],[0.5,0],[0.6,0],[0.7,0],[0.8,0],[0.9,0],[0,0.1],[0,0.3],[0,0.5],[0,0.7],[0,0.9],[0.1,1],[0.2,1],[0.3,1],[0.4,1],[0.5,1],[0.6,1],[0.7,1],[0.8,1],[0.9,1],[1,0.1],[1,0.3],[1,0.5],[1,0.7],[1,0.9]];" parent="1" vertex="1">
          <mxGeometry x="980" y="-291" width="210" height="30" as="geometry" />
        </mxCell>
        <mxCell id="9d43khAp4z9KavK-o5Pn-51" value="pko:changelogDescription: string" style="rounded=0;whiteSpace=wrap;html=1;snapToPoint=1;points=[[0.1,0],[0.2,0],[0.3,0],[0.4,0],[0.5,0],[0.6,0],[0.7,0],[0.8,0],[0.9,0],[0,0.1],[0,0.3],[0,0.5],[0,0.7],[0,0.9],[0.1,1],[0.2,1],[0.3,1],[0.4,1],[0.5,1],[0.6,1],[0.7,1],[0.8,1],[0.9,1],[1,0.1],[1,0.3],[1,0.5],[1,0.7],[1,0.9]];" parent="1" vertex="1">
          <mxGeometry x="980" y="-261" width="210" height="30" as="geometry" />
        </mxCell>
        <mxCell id="9d43khAp4z9KavK-o5Pn-52" value="pko:versionNumber: decimal" style="rounded=0;whiteSpace=wrap;html=1;snapToPoint=1;points=[[0.1,0],[0.2,0],[0.3,0],[0.4,0],[0.5,0],[0.6,0],[0.7,0],[0.8,0],[0.9,0],[0,0.1],[0,0.3],[0,0.5],[0,0.7],[0,0.9],[0.1,1],[0.2,1],[0.3,1],[0.4,1],[0.5,1],[0.6,1],[0.7,1],[0.8,1],[0.9,1],[1,0.1],[1,0.3],[1,0.5],[1,0.7],[1,0.9]];fontColor=#000000;" parent="1" vertex="1">
          <mxGeometry x="980" y="-231" width="210" height="30" as="geometry" />
        </mxCell>
        <mxCell id="9d43khAp4z9KavK-o5Pn-53" value="pko:maxRepetitions: integer" style="rounded=0;whiteSpace=wrap;html=1;snapToPoint=1;points=[[0.1,0],[0.2,0],[0.3,0],[0.4,0],[0.5,0],[0.6,0],[0.7,0],[0.8,0],[0.9,0],[0,0.1],[0,0.3],[0,0.5],[0,0.7],[0,0.9],[0.1,1],[0.2,1],[0.3,1],[0.4,1],[0.5,1],[0.6,1],[0.7,1],[0.8,1],[0.9,1],[1,0.1],[1,0.3],[1,0.5],[1,0.7],[1,0.9]];" parent="1" vertex="1">
          <mxGeometry x="1530" y="73.94000000000005" width="210" height="30" as="geometry" />
        </mxCell>
        <mxCell id="9d43khAp4z9KavK-o5Pn-54" value="pko:minRepetitions: integer" style="rounded=0;whiteSpace=wrap;html=1;snapToPoint=1;points=[[0.1,0],[0.2,0],[0.3,0],[0.4,0],[0.5,0],[0.6,0],[0.7,0],[0.8,0],[0.9,0],[0,0.1],[0,0.3],[0,0.5],[0,0.7],[0,0.9],[0.1,1],[0.2,1],[0.3,1],[0.4,1],[0.5,1],[0.6,1],[0.7,1],[0.8,1],[0.9,1],[1,0.1],[1,0.3],[1,0.5],[1,0.7],[1,0.9]];" parent="1" vertex="1">
          <mxGeometry x="1530" y="103.94000000000005" width="210" height="30" as="geometry" />
        </mxCell>
        <mxCell id="9d43khAp4z9KavK-o5Pn-55" value="dct:title string" style="rounded=0;whiteSpace=wrap;html=1;snapToPoint=1;points=[[0.1,0],[0.2,0],[0.3,0],[0.4,0],[0.5,0],[0.6,0],[0.7,0],[0.8,0],[0.9,0],[0,0.1],[0,0.3],[0,0.5],[0,0.7],[0,0.9],[0.1,1],[0.2,1],[0.3,1],[0.4,1],[0.5,1],[0.6,1],[0.7,1],[0.8,1],[0.9,1],[1,0.1],[1,0.3],[1,0.5],[1,0.7],[1,0.9]];dashed=1;" parent="1" vertex="1">
          <mxGeometry x="1530" y="-16" width="210" height="30" as="geometry" />
        </mxCell>
        <mxCell id="9d43khAp4z9KavK-o5Pn-56" value="dct:description string" style="rounded=0;whiteSpace=wrap;html=1;snapToPoint=1;points=[[0.1,0],[0.2,0],[0.3,0],[0.4,0],[0.5,0],[0.6,0],[0.7,0],[0.8,0],[0.9,0],[0,0.1],[0,0.3],[0,0.5],[0,0.7],[0,0.9],[0.1,1],[0.2,1],[0.3,1],[0.4,1],[0.5,1],[0.6,1],[0.7,1],[0.8,1],[0.9,1],[1,0.1],[1,0.3],[1,0.5],[1,0.7],[1,0.9]];dashed=1;" parent="1" vertex="1">
          <mxGeometry x="1530" y="13.940000000000055" width="210" height="30" as="geometry" />
        </mxCell>
        <mxCell id="9d43khAp4z9KavK-o5Pn-57" value="dct:identifier string" style="rounded=0;whiteSpace=wrap;html=1;snapToPoint=1;points=[[0.1,0],[0.2,0],[0.3,0],[0.4,0],[0.5,0],[0.6,0],[0.7,0],[0.8,0],[0.9,0],[0,0.1],[0,0.3],[0,0.5],[0,0.7],[0,0.9],[0.1,1],[0.2,1],[0.3,1],[0.4,1],[0.5,1],[0.6,1],[0.7,1],[0.8,1],[0.9,1],[1,0.1],[1,0.3],[1,0.5],[1,0.7],[1,0.9]];dashed=1;" parent="1" vertex="1">
          <mxGeometry x="1530" y="43.940000000000055" width="210" height="30" as="geometry" />
        </mxCell>
        <mxCell id="9d43khAp4z9KavK-o5Pn-58" value="pko:StepVerification" style="rounded=0;whiteSpace=wrap;html=1;snapToPoint=1;points=[[0.1,0],[0.2,0],[0.3,0],[0.4,0],[0.5,0],[0.6,0],[0.7,0],[0.8,0],[0.9,0],[0,0.1],[0,0.3],[0,0.5],[0,0.7],[0,0.9],[0.1,1],[0.2,1],[0.3,1],[0.4,1],[0.5,1],[0.6,1],[0.7,1],[0.8,1],[0.9,1],[1,0.1],[1,0.3],[1,0.5],[1,0.7],[1,0.9]];fillColor=#b0e3e6;strokeColor=#0e8088;" parent="1" vertex="1">
          <mxGeometry x="1820" y="214" width="210" height="30" as="geometry" />
        </mxCell>
        <mxCell id="9d43khAp4z9KavK-o5Pn-59" value="dct:title string" style="rounded=0;whiteSpace=wrap;html=1;snapToPoint=1;points=[[0.1,0],[0.2,0],[0.3,0],[0.4,0],[0.5,0],[0.6,0],[0.7,0],[0.8,0],[0.9,0],[0,0.1],[0,0.3],[0,0.5],[0,0.7],[0,0.9],[0.1,1],[0.2,1],[0.3,1],[0.4,1],[0.5,1],[0.6,1],[0.7,1],[0.8,1],[0.9,1],[1,0.1],[1,0.3],[1,0.5],[1,0.7],[1,0.9]];dashed=1;" parent="1" vertex="1">
          <mxGeometry x="1820" y="244" width="210" height="30" as="geometry" />
        </mxCell>
        <mxCell id="9d43khAp4z9KavK-o5Pn-60" value="dct:description string" style="rounded=0;whiteSpace=wrap;html=1;snapToPoint=1;points=[[0.1,0],[0.2,0],[0.3,0],[0.4,0],[0.5,0],[0.6,0],[0.7,0],[0.8,0],[0.9,0],[0,0.1],[0,0.3],[0,0.5],[0,0.7],[0,0.9],[0.1,1],[0.2,1],[0.3,1],[0.4,1],[0.5,1],[0.6,1],[0.7,1],[0.8,1],[0.9,1],[1,0.1],[1,0.3],[1,0.5],[1,0.7],[1,0.9]];dashed=1;" parent="1" vertex="1">
          <mxGeometry x="1820" y="274" width="210" height="30" as="geometry" />
        </mxCell>
        <mxCell id="9d43khAp4z9KavK-o5Pn-61" value="dct:identifier string" style="rounded=0;whiteSpace=wrap;html=1;snapToPoint=1;points=[[0.1,0],[0.2,0],[0.3,0],[0.4,0],[0.5,0],[0.6,0],[0.7,0],[0.8,0],[0.9,0],[0,0.1],[0,0.3],[0,0.5],[0,0.7],[0,0.9],[0.1,1],[0.2,1],[0.3,1],[0.4,1],[0.5,1],[0.6,1],[0.7,1],[0.8,1],[0.9,1],[1,0.1],[1,0.3],[1,0.5],[1,0.7],[1,0.9]];dashed=1;" parent="1" vertex="1">
          <mxGeometry x="1820" y="304" width="210" height="30" as="geometry" />
        </mxCell>
        <mxCell id="9d43khAp4z9KavK-o5Pn-62" value="" style="endArrow=block;html=1;fontColor=#000099;endFill=0;entryX=0.8;entryY=1;entryDx=0;entryDy=0;endSize=8;arcSize=0;rounded=0;edgeStyle=orthogonalEdgeStyle;exitX=0.3;exitY=0;exitDx=0;exitDy=0;" parent="1" source="9d43khAp4z9KavK-o5Pn-58" target="9d43khAp4z9KavK-o5Pn-54" edge="1">
          <mxGeometry width="50" height="50" relative="1" as="geometry">
            <mxPoint x="1877.75" y="213.99999999999977" as="sourcePoint" />
            <mxPoint x="1718.9999999999995" y="163.94000000000005" as="targetPoint" />
            <Array as="points">
              <mxPoint x="1883" y="184" />
              <mxPoint x="1698" y="184" />
            </Array>
          </mxGeometry>
        </mxCell>
        <mxCell id="9d43khAp4z9KavK-o5Pn-63" value="" style="endArrow=classic;html=1;exitX=1;exitY=0.7;exitDx=0;exitDy=0;endSize=8;arcSize=0;rounded=0;edgeStyle=orthogonalEdgeStyle;entryX=0.7;entryY=0;entryDx=0;entryDy=0;" parent="1" source="9d43khAp4z9KavK-o5Pn-54" target="9d43khAp4z9KavK-o5Pn-58" edge="1">
          <mxGeometry width="50" height="50" relative="1" as="geometry">
            <mxPoint x="1740" y="136.9400000000005" as="sourcePoint" />
            <mxPoint x="1620" y="344" as="targetPoint" />
            <Array as="points">
              <mxPoint x="1967" y="125" />
            </Array>
          </mxGeometry>
        </mxCell>
        <mxCell id="9d43khAp4z9KavK-o5Pn-64" value="&lt;div&gt;pko:hasStepVerification&lt;/div&gt;" style="edgeLabel;html=1;align=center;verticalAlign=middle;resizable=0;points=[];" parent="9d43khAp4z9KavK-o5Pn-63" vertex="1" connectable="0">
          <mxGeometry x="-0.1912" y="-1" relative="1" as="geometry">
            <mxPoint x="32" y="-7" as="offset" />
          </mxGeometry>
        </mxCell>
        <mxCell id="9d43khAp4z9KavK-o5Pn-65" value="" style="endArrow=classic;html=1;exitX=0.5;exitY=0;exitDx=0;exitDy=0;endSize=8;arcSize=0;rounded=0;edgeStyle=orthogonalEdgeStyle;entryX=1;entryY=0.9;entryDx=0;entryDy=0;" parent="1" source="9d43khAp4z9KavK-o5Pn-58" target="9d43khAp4z9KavK-o5Pn-54" edge="1">
          <mxGeometry width="50" height="50" relative="1" as="geometry">
            <mxPoint x="1750" y="147" as="sourcePoint" />
            <mxPoint x="1740" y="148.94000000000005" as="targetPoint" />
            <Array as="points">
              <mxPoint x="1925" y="131" />
            </Array>
          </mxGeometry>
        </mxCell>
        <mxCell id="9d43khAp4z9KavK-o5Pn-66" value="&lt;div&gt;pko:isStepVerificationOf&lt;/div&gt;" style="edgeLabel;html=1;align=center;verticalAlign=middle;resizable=0;points=[];" parent="9d43khAp4z9KavK-o5Pn-65" vertex="1" connectable="0">
          <mxGeometry x="-0.1912" y="-1" relative="1" as="geometry">
            <mxPoint x="-39" y="4" as="offset" />
          </mxGeometry>
        </mxCell>
        <mxCell id="9d43khAp4z9KavK-o5Pn-67" value="" style="endArrow=classic;html=1;endSize=8;arcSize=0;rounded=0;entryX=0;entryY=0.5;entryDx=0;entryDy=0;exitX=0.2;exitY=1;exitDx=0;exitDy=0;edgeStyle=orthogonalEdgeStyle;" parent="1" source="9d43khAp4z9KavK-o5Pn-54" target="9d43khAp4z9KavK-o5Pn-25" edge="1">
          <mxGeometry width="50" height="50" relative="1" as="geometry">
            <mxPoint x="1635" y="163.94000000000005" as="sourcePoint" />
            <mxPoint x="1542" y="454" as="targetPoint" />
            <Array as="points">
              <mxPoint x="1572" y="429" />
            </Array>
          </mxGeometry>
        </mxCell>
        <mxCell id="9d43khAp4z9KavK-o5Pn-68" value="&lt;div&gt;pko:isStepOfMultiStep&lt;/div&gt;" style="edgeLabel;html=1;align=center;verticalAlign=middle;resizable=0;points=[];" parent="9d43khAp4z9KavK-o5Pn-67" vertex="1" connectable="0">
          <mxGeometry x="-0.1912" y="-1" relative="1" as="geometry">
            <mxPoint x="23" y="14" as="offset" />
          </mxGeometry>
        </mxCell>
        <mxCell id="9d43khAp4z9KavK-o5Pn-69" value="" style="endArrow=classic;html=1;endSize=8;arcSize=0;rounded=0;exitX=0.7;exitY=1;exitDx=0;exitDy=0;edgeStyle=orthogonalEdgeStyle;entryX=0;entryY=0.1;entryDx=0;entryDy=0;" parent="1" source="9d43khAp4z9KavK-o5Pn-52" target="9d43khAp4z9KavK-o5Pn-22" edge="1">
          <mxGeometry width="50" height="50" relative="1" as="geometry">
            <mxPoint x="1168.9999999999995" y="-171" as="sourcePoint" />
            <mxPoint x="1539" y="-46" as="targetPoint" />
            <Array as="points">
              <mxPoint x="1127" y="-156" />
              <mxPoint x="1510" y="-156" />
              <mxPoint x="1510" y="-43" />
            </Array>
          </mxGeometry>
        </mxCell>
        <mxCell id="9d43khAp4z9KavK-o5Pn-70" value="&lt;div&gt;pko:hasFallbackStep&lt;/div&gt;" style="edgeLabel;html=1;align=center;verticalAlign=middle;resizable=0;points=[];" parent="9d43khAp4z9KavK-o5Pn-69" vertex="1" connectable="0">
          <mxGeometry x="-0.1912" y="-1" relative="1" as="geometry">
            <mxPoint x="-1" y="-1" as="offset" />
          </mxGeometry>
        </mxCell>
        <mxCell id="9d43khAp4z9KavK-o5Pn-71" value="" style="endArrow=classic;html=1;exitX=0.3;exitY=0;exitDx=0;exitDy=0;endSize=8;arcSize=0;rounded=0;edgeStyle=orthogonalEdgeStyle;entryX=0.9;entryY=1;entryDx=0;entryDy=0;" parent="1" source="9d43khAp4z9KavK-o5Pn-8" target="9d43khAp4z9KavK-o5Pn-73" edge="1">
          <mxGeometry width="50" height="50" relative="1" as="geometry">
            <mxPoint x="990" y="-176" as="sourcePoint" />
            <mxPoint x="923" y="34" as="targetPoint" />
            <Array as="points">
              <mxPoint x="1043" y="-446" />
              <mxPoint x="985" y="-446" />
            </Array>
          </mxGeometry>
        </mxCell>
        <mxCell id="9d43khAp4z9KavK-o5Pn-72" value="&lt;div&gt;pko:hasProcedureType&lt;/div&gt;" style="edgeLabel;html=1;align=center;verticalAlign=middle;resizable=0;points=[];" parent="9d43khAp4z9KavK-o5Pn-71" vertex="1" connectable="0">
          <mxGeometry x="-0.1912" y="-1" relative="1" as="geometry">
            <mxPoint x="-55" y="-59" as="offset" />
          </mxGeometry>
        </mxCell>
        <mxCell id="9d43khAp4z9KavK-o5Pn-73" value="pko:ProcedureType" style="rounded=0;whiteSpace=wrap;html=1;snapToPoint=1;points=[[0.1,0],[0.2,0],[0.3,0],[0.4,0],[0.5,0],[0.6,0],[0.7,0],[0.8,0],[0.9,0],[0,0.1],[0,0.3],[0,0.5],[0,0.7],[0,0.9],[0.1,1],[0.2,1],[0.3,1],[0.4,1],[0.5,1],[0.6,1],[0.7,1],[0.8,1],[0.9,1],[1,0.1],[1,0.3],[1,0.5],[1,0.7],[1,0.9]];fillColor=#b0e3e6;strokeColor=#0e8088;" parent="1" vertex="1">
          <mxGeometry x="850" y="-576" width="150" height="30" as="geometry" />
        </mxCell>
        <mxCell id="9d43khAp4z9KavK-o5Pn-74" value="prov:Activity" style="rounded=0;whiteSpace=wrap;html=1;snapToPoint=1;points=[[0.1,0],[0.2,0],[0.3,0],[0.4,0],[0.5,0],[0.6,0],[0.7,0],[0.8,0],[0.9,0],[0,0.1],[0,0.3],[0,0.5],[0,0.7],[0,0.9],[0.1,1],[0.2,1],[0.3,1],[0.4,1],[0.5,1],[0.6,1],[0.7,1],[0.8,1],[0.9,1],[1,0.1],[1,0.3],[1,0.5],[1,0.7],[1,0.9]];fillColor=#e1d5e7;strokeColor=#9673a6;" parent="1" vertex="1">
          <mxGeometry x="1073" y="122" width="210" height="30" as="geometry" />
        </mxCell>
        <mxCell id="9d43khAp4z9KavK-o5Pn-75" value="prov:startedAtTime dateTime" style="rounded=0;whiteSpace=wrap;html=1;snapToPoint=1;points=[[0.1,0],[0.2,0],[0.3,0],[0.4,0],[0.5,0],[0.6,0],[0.7,0],[0.8,0],[0.9,0],[0,0.1],[0,0.3],[0,0.5],[0,0.7],[0,0.9],[0.1,1],[0.2,1],[0.3,1],[0.4,1],[0.5,1],[0.6,1],[0.7,1],[0.8,1],[0.9,1],[1,0.1],[1,0.3],[1,0.5],[1,0.7],[1,0.9]];dashed=1;" parent="1" vertex="1">
          <mxGeometry x="1073" y="152" width="210" height="30" as="geometry" />
        </mxCell>
        <mxCell id="9d43khAp4z9KavK-o5Pn-76" value="prov:endedAtTime dateTime" style="rounded=0;whiteSpace=wrap;html=1;snapToPoint=1;points=[[0.1,0],[0.2,0],[0.3,0],[0.4,0],[0.5,0],[0.6,0],[0.7,0],[0.8,0],[0.9,0],[0,0.1],[0,0.3],[0,0.5],[0,0.7],[0,0.9],[0.1,1],[0.2,1],[0.3,1],[0.4,1],[0.5,1],[0.6,1],[0.7,1],[0.8,1],[0.9,1],[1,0.1],[1,0.3],[1,0.5],[1,0.7],[1,0.9]];dashed=1;" parent="1" vertex="1">
          <mxGeometry x="1073" y="182" width="210" height="30" as="geometry" />
        </mxCell>
        <mxCell id="9d43khAp4z9KavK-o5Pn-77" value="prov:Agent" style="rounded=0;whiteSpace=wrap;html=1;snapToPoint=1;points=[[0.1,0],[0.2,0],[0.3,0],[0.4,0],[0.5,0],[0.6,0],[0.7,0],[0.8,0],[0.9,0],[0,0.1],[0,0.3],[0,0.5],[0,0.7],[0,0.9],[0.1,1],[0.2,1],[0.3,1],[0.4,1],[0.5,1],[0.6,1],[0.7,1],[0.8,1],[0.9,1],[1,0.1],[1,0.3],[1,0.5],[1,0.7],[1,0.9]];fillColor=#d0cee2;strokeColor=#56517e;" parent="1" vertex="1">
          <mxGeometry x="743" y="42" width="210" height="30" as="geometry" />
        </mxCell>
        <mxCell id="9d43khAp4z9KavK-o5Pn-78" value="" style="endArrow=classic;html=1;endSize=8;arcSize=0;rounded=0;exitX=0.1;exitY=0;exitDx=0;exitDy=0;edgeStyle=orthogonalEdgeStyle;entryX=1;entryY=0.5;entryDx=0;entryDy=0;" parent="1" source="9d43khAp4z9KavK-o5Pn-74" target="9d43khAp4z9KavK-o5Pn-77" edge="1">
          <mxGeometry width="50" height="50" relative="1" as="geometry">
            <mxPoint x="1202" y="-233" as="sourcePoint" />
            <mxPoint x="1563" y="-105" as="targetPoint" />
            <Array as="points">
              <mxPoint x="1094" y="57" />
            </Array>
          </mxGeometry>
        </mxCell>
        <mxCell id="9d43khAp4z9KavK-o5Pn-79" value="&lt;div&gt;pko:wasConfirmedBy&lt;/div&gt;" style="edgeLabel;html=1;align=center;verticalAlign=middle;resizable=0;points=[];" parent="9d43khAp4z9KavK-o5Pn-78" vertex="1" connectable="0">
          <mxGeometry x="-0.1912" y="-1" relative="1" as="geometry">
            <mxPoint x="-42" y="1" as="offset" />
          </mxGeometry>
        </mxCell>
        <mxCell id="9d43khAp4z9KavK-o5Pn-80" value="" style="endArrow=classic;html=1;endSize=8;arcSize=0;rounded=0;exitX=0.2;exitY=0;exitDx=0;exitDy=0;edgeStyle=orthogonalEdgeStyle;entryX=1;entryY=0.1;entryDx=0;entryDy=0;dashed=1;" parent="1" source="9d43khAp4z9KavK-o5Pn-74" target="9d43khAp4z9KavK-o5Pn-77" edge="1">
          <mxGeometry width="50" height="50" relative="1" as="geometry">
            <mxPoint x="1104" y="132" as="sourcePoint" />
            <mxPoint x="963" y="67" as="targetPoint" />
            <Array as="points">
              <mxPoint x="1113" y="122" />
              <mxPoint x="1113" y="45" />
            </Array>
          </mxGeometry>
        </mxCell>
        <mxCell id="9d43khAp4z9KavK-o5Pn-81" value="&lt;div&gt;prov:wasAssociatedWith&lt;/div&gt;" style="edgeLabel;html=1;align=center;verticalAlign=middle;resizable=0;points=[];" parent="9d43khAp4z9KavK-o5Pn-80" vertex="1" connectable="0">
          <mxGeometry x="-0.1912" y="-1" relative="1" as="geometry">
            <mxPoint x="-52" y="-2" as="offset" />
          </mxGeometry>
        </mxCell>
        <mxCell id="9d43khAp4z9KavK-o5Pn-82" value="" style="endArrow=classic;html=1;endSize=8;arcSize=0;rounded=0;exitX=0;exitY=0.1;exitDx=0;exitDy=0;edgeStyle=orthogonalEdgeStyle;entryX=1;entryY=0.9;entryDx=0;entryDy=0;" parent="1" source="9d43khAp4z9KavK-o5Pn-74" target="9d43khAp4z9KavK-o5Pn-77" edge="1">
          <mxGeometry width="50" height="50" relative="1" as="geometry">
            <mxPoint x="1104" y="132" as="sourcePoint" />
            <mxPoint x="963" y="67" as="targetPoint" />
            <Array as="points">
              <mxPoint x="1073" y="69" />
            </Array>
          </mxGeometry>
        </mxCell>
        <mxCell id="9d43khAp4z9KavK-o5Pn-83" value="&lt;div&gt;pko:wasExecutedBy&lt;/div&gt;" style="edgeLabel;html=1;align=center;verticalAlign=middle;resizable=0;points=[];" parent="9d43khAp4z9KavK-o5Pn-82" vertex="1" connectable="0">
          <mxGeometry x="-0.1912" y="-1" relative="1" as="geometry">
            <mxPoint x="-42" y="1" as="offset" />
          </mxGeometry>
        </mxCell>
        <mxCell id="9d43khAp4z9KavK-o5Pn-84" value="pko:ProcedureExecution" style="rounded=0;whiteSpace=wrap;html=1;snapToPoint=1;points=[[0.1,0],[0.2,0],[0.3,0],[0.4,0],[0.5,0],[0.6,0],[0.7,0],[0.8,0],[0.9,0],[0,0.1],[0,0.3],[0,0.5],[0,0.7],[0,0.9],[0.1,1],[0.2,1],[0.3,1],[0.4,1],[0.5,1],[0.6,1],[0.7,1],[0.8,1],[0.9,1],[1,0.1],[1,0.3],[1,0.5],[1,0.7],[1,0.9]];fillColor=#b0e3e6;strokeColor=#0e8088;" parent="1" vertex="1">
          <mxGeometry x="570" y="322" width="210" height="30" as="geometry" />
        </mxCell>
        <mxCell id="9d43khAp4z9KavK-o5Pn-85" value="pko:StepExecution" style="rounded=0;whiteSpace=wrap;html=1;snapToPoint=1;points=[[0.1,0],[0.2,0],[0.3,0],[0.4,0],[0.5,0],[0.6,0],[0.7,0],[0.8,0],[0.9,0],[0,0.1],[0,0.3],[0,0.5],[0,0.7],[0,0.9],[0.1,1],[0.2,1],[0.3,1],[0.4,1],[0.5,1],[0.6,1],[0.7,1],[0.8,1],[0.9,1],[1,0.1],[1,0.3],[1,0.5],[1,0.7],[1,0.9]];fillColor=#b0e3e6;strokeColor=#0e8088;" parent="1" vertex="1">
          <mxGeometry x="800" y="322" width="210" height="30" as="geometry" />
        </mxCell>
        <mxCell id="9d43khAp4z9KavK-o5Pn-86" value="" style="endArrow=block;html=1;fontColor=#000099;exitX=0.8;exitY=0;exitDx=0;exitDy=0;endFill=0;entryX=0;entryY=0.5;entryDx=0;entryDy=0;endSize=8;arcSize=0;rounded=0;edgeStyle=orthogonalEdgeStyle;" parent="1" source="9d43khAp4z9KavK-o5Pn-84" target="9d43khAp4z9KavK-o5Pn-74" edge="1">
          <mxGeometry width="50" height="50" relative="1" as="geometry">
            <mxPoint x="1118" y="-413" as="sourcePoint" />
            <mxPoint x="1084" y="-748" as="targetPoint" />
            <Array as="points">
              <mxPoint x="741" y="137" />
            </Array>
          </mxGeometry>
        </mxCell>
        <mxCell id="9d43khAp4z9KavK-o5Pn-87" value="" style="endArrow=block;html=1;fontColor=#000099;endFill=0;entryX=0;entryY=0.5;entryDx=0;entryDy=0;endSize=8;arcSize=0;rounded=0;edgeStyle=orthogonalEdgeStyle;exitX=0.4;exitY=0;exitDx=0;exitDy=0;" parent="1" source="9d43khAp4z9KavK-o5Pn-85" target="9d43khAp4z9KavK-o5Pn-74" edge="1">
          <mxGeometry width="50" height="50" relative="1" as="geometry">
            <mxPoint x="884" y="322" as="sourcePoint" />
            <mxPoint x="1443" y="127" as="targetPoint" />
            <Array as="points">
              <mxPoint x="884" y="137" />
            </Array>
          </mxGeometry>
        </mxCell>
        <mxCell id="9d43khAp4z9KavK-o5Pn-88" value="" style="endArrow=classic;html=1;endSize=8;arcSize=0;rounded=0;exitX=0.1;exitY=0;exitDx=0;exitDy=0;edgeStyle=orthogonalEdgeStyle;entryX=0.1;entryY=1;entryDx=0;entryDy=0;" parent="1" source="9d43khAp4z9KavK-o5Pn-84" target="9d43khAp4z9KavK-o5Pn-52" edge="1">
          <mxGeometry width="50" height="50" relative="1" as="geometry">
            <mxPoint x="1060" y="207" as="sourcePoint" />
            <mxPoint x="1001" y="-171" as="targetPoint" />
            <Array as="points">
              <mxPoint x="590" y="322" />
              <mxPoint x="590" y="-6" />
              <mxPoint x="1001" y="-6" />
            </Array>
          </mxGeometry>
        </mxCell>
        <mxCell id="9d43khAp4z9KavK-o5Pn-89" value="&lt;div&gt;pko:executesProcedure&lt;/div&gt;" style="edgeLabel;html=1;align=center;verticalAlign=middle;resizable=0;points=[];" parent="9d43khAp4z9KavK-o5Pn-88" vertex="1" connectable="0">
          <mxGeometry x="-0.1912" y="-1" relative="1" as="geometry">
            <mxPoint x="-53" y="249" as="offset" />
          </mxGeometry>
        </mxCell>
        <mxCell id="9d43khAp4z9KavK-o5Pn-90" value="" style="endArrow=classic;html=1;endSize=8;arcSize=0;rounded=0;exitX=0.6;exitY=0;exitDx=0;exitDy=0;edgeStyle=orthogonalEdgeStyle;entryX=0;entryY=0.7;entryDx=0;entryDy=0;" parent="1" source="9d43khAp4z9KavK-o5Pn-85" target="9d43khAp4z9KavK-o5Pn-22" edge="1">
          <mxGeometry width="50" height="50" relative="1" as="geometry">
            <mxPoint x="1280" y="504" as="sourcePoint" />
            <mxPoint x="1710" y="-21" as="targetPoint" />
            <Array as="points">
              <mxPoint x="926" y="264" />
              <mxPoint x="1490" y="264" />
              <mxPoint x="1490" y="-25" />
            </Array>
          </mxGeometry>
        </mxCell>
        <mxCell id="9d43khAp4z9KavK-o5Pn-91" value="&lt;div&gt;pko:executesStep&lt;/div&gt;" style="edgeLabel;html=1;align=center;verticalAlign=middle;resizable=0;points=[];" parent="9d43khAp4z9KavK-o5Pn-90" vertex="1" connectable="0">
          <mxGeometry x="-0.1912" y="-1" relative="1" as="geometry">
            <mxPoint x="-88" y="-1" as="offset" />
          </mxGeometry>
        </mxCell>
        <mxCell id="9d43khAp4z9KavK-o5Pn-92" value="time:Duration" style="rounded=0;whiteSpace=wrap;html=1;snapToPoint=1;points=[[0.1,0],[0.2,0],[0.3,0],[0.4,0],[0.5,0],[0.6,0],[0.7,0],[0.8,0],[0.9,0],[0,0.1],[0,0.3],[0,0.5],[0,0.7],[0,0.9],[0.1,1],[0.2,1],[0.3,1],[0.4,1],[0.5,1],[0.6,1],[0.7,1],[0.8,1],[0.9,1],[1,0.1],[1,0.3],[1,0.5],[1,0.7],[1,0.9]];fillColor=#dae8fc;strokeColor=#6c8ebf;" parent="1" vertex="1">
          <mxGeometry x="1170" y="-76.05999999999995" width="180" height="30" as="geometry" />
        </mxCell>
        <mxCell id="9d43khAp4z9KavK-o5Pn-93" value="" style="endArrow=classic;html=1;endSize=8;arcSize=0;rounded=0;edgeStyle=orthogonalEdgeStyle;entryX=0;entryY=0.5;entryDx=0;entryDy=0;exitX=0.2;exitY=1;exitDx=0;exitDy=0;dashed=1;" parent="1" source="9d43khAp4z9KavK-o5Pn-52" target="9d43khAp4z9KavK-o5Pn-92" edge="1">
          <mxGeometry width="50" height="50" relative="1" as="geometry">
            <mxPoint x="1022" y="-171" as="sourcePoint" />
            <mxPoint x="990" y="-338" as="targetPoint" />
            <Array as="points">
              <mxPoint x="1022" y="-61" />
            </Array>
          </mxGeometry>
        </mxCell>
        <mxCell id="9d43khAp4z9KavK-o5Pn-94" value="&lt;div&gt;pko:hasExpectedDuration&lt;/div&gt;" style="edgeLabel;html=1;align=center;verticalAlign=middle;resizable=0;points=[];" parent="9d43khAp4z9KavK-o5Pn-93" vertex="1" connectable="0">
          <mxGeometry x="-0.1912" y="-1" relative="1" as="geometry">
            <mxPoint x="52" y="-11" as="offset" />
          </mxGeometry>
        </mxCell>
        <mxCell id="9d43khAp4z9KavK-o5Pn-95" value="" style="endArrow=classic;html=1;endSize=8;arcSize=0;rounded=0;entryX=1;entryY=0.5;entryDx=0;entryDy=0;exitX=0;exitY=0.3;exitDx=0;exitDy=0;dashed=1;" parent="1" source="9d43khAp4z9KavK-o5Pn-22" target="9d43khAp4z9KavK-o5Pn-92" edge="1">
          <mxGeometry width="50" height="50" relative="1" as="geometry">
            <mxPoint x="1320" y="-38" as="sourcePoint" />
            <mxPoint x="1468" y="72" as="targetPoint" />
          </mxGeometry>
        </mxCell>
        <mxCell id="9d43khAp4z9KavK-o5Pn-96" value="&lt;div&gt;pko:hasExpectedDuration&lt;/div&gt;" style="edgeLabel;html=1;align=center;verticalAlign=middle;resizable=0;points=[];" parent="9d43khAp4z9KavK-o5Pn-95" vertex="1" connectable="0">
          <mxGeometry x="-0.1912" y="-1" relative="1" as="geometry">
            <mxPoint x="-27" y="2" as="offset" />
          </mxGeometry>
        </mxCell>
        <mxCell id="9d43khAp4z9KavK-o5Pn-97" value="" style="endArrow=classic;html=1;exitX=1;exitY=0.3;exitDx=0;exitDy=0;endSize=8;arcSize=0;rounded=0;edgeStyle=orthogonalEdgeStyle;entryX=0.9;entryY=0;entryDx=0;entryDy=0;" parent="1" source="9d43khAp4z9KavK-o5Pn-85" target="9d43khAp4z9KavK-o5Pn-85" edge="1">
          <mxGeometry width="50" height="50" relative="1" as="geometry">
            <mxPoint x="1017" y="406" as="sourcePoint" />
            <mxPoint x="1017" y="364" as="targetPoint" />
            <Array as="points">
              <mxPoint x="1050" y="331" />
              <mxPoint x="1050" y="304" />
              <mxPoint x="989" y="304" />
            </Array>
          </mxGeometry>
        </mxCell>
        <mxCell id="9d43khAp4z9KavK-o5Pn-98" value="&lt;div&gt;pko:previousStepExecution&lt;/div&gt;" style="edgeLabel;html=1;align=center;verticalAlign=middle;resizable=0;points=[];" parent="9d43khAp4z9KavK-o5Pn-97" vertex="1" connectable="0">
          <mxGeometry x="-0.1912" y="-1" relative="1" as="geometry">
            <mxPoint x="22" y="-8" as="offset" />
          </mxGeometry>
        </mxCell>
        <mxCell id="9d43khAp4z9KavK-o5Pn-99" value="dct:description string" style="rounded=0;whiteSpace=wrap;html=1;snapToPoint=1;points=[[0.1,0],[0.2,0],[0.3,0],[0.4,0],[0.5,0],[0.6,0],[0.7,0],[0.8,0],[0.9,0],[0,0.1],[0,0.3],[0,0.5],[0,0.7],[0,0.9],[0.1,1],[0.2,1],[0.3,1],[0.4,1],[0.5,1],[0.6,1],[0.7,1],[0.8,1],[0.9,1],[1,0.1],[1,0.3],[1,0.5],[1,0.7],[1,0.9]];dashed=1;" parent="1" vertex="1">
          <mxGeometry x="1073" y="212" width="210" height="30" as="geometry" />
        </mxCell>
        <mxCell id="9d43khAp4z9KavK-o5Pn-100" value="" style="endArrow=classic;html=1;exitX=1;exitY=0.5;exitDx=0;exitDy=0;endSize=8;arcSize=0;rounded=0;edgeStyle=orthogonalEdgeStyle;entryX=0.8;entryY=0;entryDx=0;entryDy=0;" parent="1" source="9d43khAp4z9KavK-o5Pn-85" target="9d43khAp4z9KavK-o5Pn-85" edge="1">
          <mxGeometry width="50" height="50" relative="1" as="geometry">
            <mxPoint x="1020" y="341" as="sourcePoint" />
            <mxPoint x="999" y="332" as="targetPoint" />
            <Array as="points">
              <mxPoint x="1010" y="341" />
              <mxPoint x="1150" y="341" />
              <mxPoint x="1150" y="284" />
              <mxPoint x="968" y="284" />
            </Array>
          </mxGeometry>
        </mxCell>
        <mxCell id="9d43khAp4z9KavK-o5Pn-101" value="&lt;div&gt;pko:nextStepExecution&lt;/div&gt;" style="edgeLabel;html=1;align=center;verticalAlign=middle;resizable=0;points=[];" parent="9d43khAp4z9KavK-o5Pn-100" vertex="1" connectable="0">
          <mxGeometry x="-0.1912" y="-1" relative="1" as="geometry">
            <mxPoint x="-11" y="6" as="offset" />
          </mxGeometry>
        </mxCell>
        <mxCell id="9d43khAp4z9KavK-o5Pn-102" value="prov:Entity" style="rounded=0;whiteSpace=wrap;html=1;snapToPoint=1;points=[[0.1,0],[0.2,0],[0.3,0],[0.4,0],[0.5,0],[0.6,0],[0.7,0],[0.8,0],[0.9,0],[0,0.1],[0,0.3],[0,0.5],[0,0.7],[0,0.9],[0.1,1],[0.2,1],[0.3,1],[0.4,1],[0.5,1],[0.6,1],[0.7,1],[0.8,1],[0.9,1],[1,0.1],[1,0.3],[1,0.5],[1,0.7],[1,0.9]];fillColor=#d0cee2;strokeColor=#56517e;" parent="1" vertex="1">
          <mxGeometry x="2010" y="504" width="100" height="30" as="geometry" />
        </mxCell>
        <mxCell id="9d43khAp4z9KavK-o5Pn-103" value="" style="endArrow=classic;html=1;exitX=1;exitY=0.1;exitDx=0;exitDy=0;endSize=8;arcSize=0;rounded=0;dashed=1;edgeStyle=orthogonalEdgeStyle;entryX=0;entryY=0.5;entryDx=0;entryDy=0;" parent="1" source="9d43khAp4z9KavK-o5Pn-238" target="9d43khAp4z9KavK-o5Pn-102" edge="1">
          <mxGeometry width="50" height="50" relative="1" as="geometry">
            <mxPoint x="1621" y="522" as="sourcePoint" />
            <mxPoint x="1260" y="394" as="targetPoint" />
            <Array as="points">
              <mxPoint x="1440" y="385" />
              <mxPoint x="1440" y="519" />
            </Array>
          </mxGeometry>
        </mxCell>
        <mxCell id="9d43khAp4z9KavK-o5Pn-104" value="&lt;div&gt;prov:used&lt;/div&gt;" style="edgeLabel;html=1;align=center;verticalAlign=middle;resizable=0;points=[];" parent="9d43khAp4z9KavK-o5Pn-103" vertex="1" connectable="0">
          <mxGeometry x="-0.1912" y="-1" relative="1" as="geometry">
            <mxPoint x="211" y="105" as="offset" />
          </mxGeometry>
        </mxCell>
        <mxCell id="9d43khAp4z9KavK-o5Pn-105" value="" style="endArrow=classic;html=1;exitX=0;exitY=0.9;exitDx=0;exitDy=0;endSize=8;arcSize=0;rounded=0;dashed=1;edgeStyle=orthogonalEdgeStyle;entryX=1;entryY=0.7;entryDx=0;entryDy=0;" parent="1" source="9d43khAp4z9KavK-o5Pn-102" target="9d43khAp4z9KavK-o5Pn-238" edge="1">
          <mxGeometry width="50" height="50" relative="1" as="geometry">
            <mxPoint x="1293" y="147" as="sourcePoint" />
            <mxPoint x="1990" y="489" as="targetPoint" />
            <Array as="points">
              <mxPoint x="1390" y="531" />
              <mxPoint x="1390" y="403" />
            </Array>
          </mxGeometry>
        </mxCell>
        <mxCell id="9d43khAp4z9KavK-o5Pn-106" value="&lt;div&gt;prov:wasGeneratedBy&lt;/div&gt;" style="edgeLabel;html=1;align=center;verticalAlign=middle;resizable=0;points=[];" parent="9d43khAp4z9KavK-o5Pn-105" vertex="1" connectable="0">
          <mxGeometry x="-0.1912" y="-1" relative="1" as="geometry">
            <mxPoint x="28" y="1" as="offset" />
          </mxGeometry>
        </mxCell>
        <mxCell id="9d43khAp4z9KavK-o5Pn-107" value="" style="endArrow=classic;html=1;exitX=1;exitY=0.5;exitDx=0;exitDy=0;endSize=8;arcSize=0;rounded=0;dashed=1;edgeStyle=orthogonalEdgeStyle;entryX=1;entryY=0.3;entryDx=0;entryDy=0;" parent="1" source="9d43khAp4z9KavK-o5Pn-102" target="9d43khAp4z9KavK-o5Pn-40" edge="1">
          <mxGeometry width="50" height="50" relative="1" as="geometry">
            <mxPoint x="2082" y="6" as="sourcePoint" />
            <mxPoint x="2809" y="388" as="targetPoint" />
            <Array as="points">
              <mxPoint x="2150" y="519" />
              <mxPoint x="2150" y="-37" />
            </Array>
          </mxGeometry>
        </mxCell>
        <mxCell id="9d43khAp4z9KavK-o5Pn-108" value="&lt;div&gt;pplan:correspondsToVariable&lt;/div&gt;" style="edgeLabel;html=1;align=center;verticalAlign=middle;resizable=0;points=[];" parent="9d43khAp4z9KavK-o5Pn-107" vertex="1" connectable="0">
          <mxGeometry x="-0.1912" y="-1" relative="1" as="geometry">
            <mxPoint x="-41" y="186" as="offset" />
          </mxGeometry>
        </mxCell>
        <mxCell id="9d43khAp4z9KavK-o5Pn-109" value="prov:Agent" style="rounded=0;whiteSpace=wrap;html=1;snapToPoint=1;points=[[0.1,0],[0.2,0],[0.3,0],[0.4,0],[0.5,0],[0.6,0],[0.7,0],[0.8,0],[0.9,0],[0,0.1],[0,0.3],[0,0.5],[0,0.7],[0,0.9],[0.1,1],[0.2,1],[0.3,1],[0.4,1],[0.5,1],[0.6,1],[0.7,1],[0.8,1],[0.9,1],[1,0.1],[1,0.3],[1,0.5],[1,0.7],[1,0.9]];fillColor=#d0cee2;strokeColor=#56517e;" parent="1" vertex="1">
          <mxGeometry x="1320" y="-636" width="90" height="30" as="geometry" />
        </mxCell>
        <mxCell id="9d43khAp4z9KavK-o5Pn-110" value="" style="endArrow=classic;html=1;exitX=1;exitY=0.9;exitDx=0;exitDy=0;endSize=8;arcSize=0;rounded=0;edgeStyle=orthogonalEdgeStyle;entryX=0.1;entryY=0;entryDx=0;entryDy=0;dashed=1;" parent="1" source="9d43khAp4z9KavK-o5Pn-9" target="9d43khAp4z9KavK-o5Pn-109" edge="1">
          <mxGeometry width="50" height="50" relative="1" as="geometry">
            <mxPoint x="1520" y="-644" as="sourcePoint" />
            <mxPoint x="1520" y="-806" as="targetPoint" />
            <Array as="points">
              <mxPoint x="1329" y="-733" />
            </Array>
          </mxGeometry>
        </mxCell>
        <mxCell id="9d43khAp4z9KavK-o5Pn-111" value="&lt;div&gt;dct:creator&lt;/div&gt;" style="edgeLabel;html=1;align=center;verticalAlign=middle;resizable=0;points=[];" parent="9d43khAp4z9KavK-o5Pn-110" vertex="1" connectable="0">
          <mxGeometry x="-0.1912" y="-1" relative="1" as="geometry">
            <mxPoint x="-1" y="62" as="offset" />
          </mxGeometry>
        </mxCell>
        <mxCell id="9d43khAp4z9KavK-o5Pn-112" value="dcat:keyword string" style="rounded=0;whiteSpace=wrap;html=1;snapToPoint=1;points=[[0.1,0],[0.2,0],[0.3,0],[0.4,0],[0.5,0],[0.6,0],[0.7,0],[0.8,0],[0.9,0],[0,0.1],[0,0.3],[0,0.5],[0,0.7],[0,0.9],[0.1,1],[0.2,1],[0.3,1],[0.4,1],[0.5,1],[0.6,1],[0.7,1],[0.8,1],[0.9,1],[1,0.1],[1,0.3],[1,0.5],[1,0.7],[1,0.9]];dashed=1;" parent="1" vertex="1">
          <mxGeometry x="1090" y="-556" width="160" height="30" as="geometry" />
        </mxCell>
        <mxCell id="9d43khAp4z9KavK-o5Pn-113" value="pko:ProcedureStatus" style="rounded=0;whiteSpace=wrap;html=1;snapToPoint=1;points=[[0.1,0],[0.2,0],[0.3,0],[0.4,0],[0.5,0],[0.6,0],[0.7,0],[0.8,0],[0.9,0],[0,0.1],[0,0.3],[0,0.5],[0,0.7],[0,0.9],[0.1,1],[0.2,1],[0.3,1],[0.4,1],[0.5,1],[0.6,1],[0.7,1],[0.8,1],[0.9,1],[1,0.1],[1,0.3],[1,0.5],[1,0.7],[1,0.9]];fillColor=#b0e3e6;strokeColor=#0e8088;" parent="1" vertex="1">
          <mxGeometry x="1440" y="-656" width="160" height="30" as="geometry" />
        </mxCell>
        <mxCell id="9d43khAp4z9KavK-o5Pn-114" value="dct:modified dateTime" style="rounded=0;whiteSpace=wrap;html=1;snapToPoint=1;points=[[0.1,0],[0.2,0],[0.3,0],[0.4,0],[0.5,0],[0.6,0],[0.7,0],[0.8,0],[0.9,0],[0,0.1],[0,0.3],[0,0.5],[0,0.7],[0,0.9],[0.1,1],[0.2,1],[0.3,1],[0.4,1],[0.5,1],[0.6,1],[0.7,1],[0.8,1],[0.9,1],[1,0.1],[1,0.3],[1,0.5],[1,0.7],[1,0.9]];dashed=1;" parent="1" vertex="1">
          <mxGeometry x="1090" y="-585" width="160" height="30" as="geometry" />
        </mxCell>
        <mxCell id="9d43khAp4z9KavK-o5Pn-115" value="" style="endArrow=classic;html=1;exitX=1;exitY=0.5;exitDx=0;exitDy=0;endSize=8;arcSize=0;rounded=0;edgeStyle=orthogonalEdgeStyle;entryX=0.4;entryY=0;entryDx=0;entryDy=0;" parent="1" source="9d43khAp4z9KavK-o5Pn-9" target="9d43khAp4z9KavK-o5Pn-109" edge="1">
          <mxGeometry width="50" height="50" relative="1" as="geometry">
            <mxPoint x="1300" y="-726" as="sourcePoint" />
            <mxPoint x="1362" y="-636" as="targetPoint" />
            <Array as="points">
              <mxPoint x="1356" y="-746" />
            </Array>
          </mxGeometry>
        </mxCell>
        <mxCell id="9d43khAp4z9KavK-o5Pn-116" value="&lt;div&gt;pko:wasModifiedBy&lt;/div&gt;" style="edgeLabel;html=1;align=center;verticalAlign=middle;resizable=0;points=[];" parent="9d43khAp4z9KavK-o5Pn-115" vertex="1" connectable="0">
          <mxGeometry x="-0.1912" y="-1" relative="1" as="geometry">
            <mxPoint x="43" y="29" as="offset" />
          </mxGeometry>
        </mxCell>
        <mxCell id="9d43khAp4z9KavK-o5Pn-117" value="" style="endArrow=classic;html=1;exitX=1;exitY=0.3;exitDx=0;exitDy=0;endSize=8;arcSize=0;rounded=0;edgeStyle=orthogonalEdgeStyle;entryX=0.5;entryY=0;entryDx=0;entryDy=0;dashed=1;" parent="1" source="9d43khAp4z9KavK-o5Pn-9" target="9d43khAp4z9KavK-o5Pn-113" edge="1">
          <mxGeometry width="50" height="50" relative="1" as="geometry">
            <mxPoint x="1451" y="-760" as="sourcePoint" />
            <mxPoint x="1530" y="-663" as="targetPoint" />
            <Array as="points">
              <mxPoint x="1520" y="-751" />
            </Array>
          </mxGeometry>
        </mxCell>
        <mxCell id="9d43khAp4z9KavK-o5Pn-118" value="&lt;div&gt;adms:status&lt;/div&gt;" style="edgeLabel;html=1;align=center;verticalAlign=middle;resizable=0;points=[];" parent="9d43khAp4z9KavK-o5Pn-117" vertex="1" connectable="0">
          <mxGeometry x="-0.1912" y="-1" relative="1" as="geometry">
            <mxPoint x="123" y="35" as="offset" />
          </mxGeometry>
        </mxCell>
        <mxCell id="9d43khAp4z9KavK-o5Pn-119" value="dcat:accessURL anyURI" style="rounded=0;whiteSpace=wrap;html=1;snapToPoint=1;points=[[0.1,0],[0.2,0],[0.3,0],[0.4,0],[0.5,0],[0.6,0],[0.7,0],[0.8,0],[0.9,0],[0,0.1],[0,0.3],[0,0.5],[0,0.7],[0,0.9],[0.1,1],[0.2,1],[0.3,1],[0.4,1],[0.5,1],[0.6,1],[0.7,1],[0.8,1],[0.9,1],[1,0.1],[1,0.3],[1,0.5],[1,0.7],[1,0.9]];dashed=1;fontColor=#000000;" parent="1" vertex="1">
          <mxGeometry x="1090" y="-527" width="160" height="30" as="geometry" />
        </mxCell>
        <mxCell id="9d43khAp4z9KavK-o5Pn-120" value="" style="endArrow=classic;html=1;exitX=0;exitY=0.9;exitDx=0;exitDy=0;endSize=8;arcSize=0;rounded=0;edgeStyle=orthogonalEdgeStyle;entryX=0;entryY=0.1;entryDx=0;entryDy=0;dashed=1;" parent="1" source="9d43khAp4z9KavK-o5Pn-9" target="9d43khAp4z9KavK-o5Pn-9" edge="1">
          <mxGeometry width="50" height="50" relative="1" as="geometry">
            <mxPoint x="1090" y="-736" as="sourcePoint" />
            <mxPoint x="1090" y="-754" as="targetPoint" />
            <Array as="points">
              <mxPoint x="1030" y="-733" />
              <mxPoint x="1030" y="-757" />
            </Array>
          </mxGeometry>
        </mxCell>
        <mxCell id="9d43khAp4z9KavK-o5Pn-121" value="dct:references" style="edgeLabel;html=1;align=center;verticalAlign=middle;resizable=0;points=[];" parent="9d43khAp4z9KavK-o5Pn-120" vertex="1" connectable="0">
          <mxGeometry x="0.0192" y="-1" relative="1" as="geometry">
            <mxPoint as="offset" />
          </mxGeometry>
        </mxCell>
        <mxCell id="9d43khAp4z9KavK-o5Pn-122" value="pko:ExpertiseLevel" style="rounded=0;whiteSpace=wrap;html=1;snapToPoint=1;points=[[0.1,0],[0.2,0],[0.3,0],[0.4,0],[0.5,0],[0.6,0],[0.7,0],[0.8,0],[0.9,0],[0,0.1],[0,0.3],[0,0.5],[0,0.7],[0,0.9],[0.1,1],[0.2,1],[0.3,1],[0.4,1],[0.5,1],[0.6,1],[0.7,1],[0.8,1],[0.9,1],[1,0.1],[1,0.3],[1,0.5],[1,0.7],[1,0.9]];fillColor=#b0e3e6;strokeColor=#0e8088;" parent="1" vertex="1">
          <mxGeometry x="1570" y="-455.99999999999994" width="210" height="30" as="geometry" />
        </mxCell>
        <mxCell id="9d43khAp4z9KavK-o5Pn-123" value="" style="endArrow=classic;html=1;endSize=8;arcSize=0;rounded=0;entryX=0.2;entryY=1;entryDx=0;entryDy=0;exitX=0.4;exitY=0;exitDx=0;exitDy=0;" parent="1" source="9d43khAp4z9KavK-o5Pn-22" target="9d43khAp4z9KavK-o5Pn-122" edge="1">
          <mxGeometry width="50" height="50" relative="1" as="geometry">
            <mxPoint x="2040" y="-386" as="sourcePoint" />
            <mxPoint x="1582" y="-36" as="targetPoint" />
          </mxGeometry>
        </mxCell>
        <mxCell id="9d43khAp4z9KavK-o5Pn-124" value="&lt;div&gt;pko:isStepForExpertiseLevel&lt;/div&gt;" style="edgeLabel;html=1;align=center;verticalAlign=middle;resizable=0;points=[];" parent="9d43khAp4z9KavK-o5Pn-123" vertex="1" connectable="0">
          <mxGeometry x="-0.1912" y="-1" relative="1" as="geometry">
            <mxPoint x="-5" y="-186" as="offset" />
          </mxGeometry>
        </mxCell>
        <mxCell id="9d43khAp4z9KavK-o5Pn-125" value="m4ing:Tool" style="rounded=0;whiteSpace=wrap;html=1;snapToPoint=1;points=[[0.1,0],[0.2,0],[0.3,0],[0.4,0],[0.5,0],[0.6,0],[0.7,0],[0.8,0],[0.9,0],[0,0.1],[0,0.3],[0,0.5],[0,0.7],[0,0.9],[0.1,1],[0.2,1],[0.3,1],[0.4,1],[0.5,1],[0.6,1],[0.7,1],[0.8,1],[0.9,1],[1,0.1],[1,0.3],[1,0.5],[1,0.7],[1,0.9]];fillColor=#f5f5f5;fontColor=#333333;strokeColor=#666666;" parent="1" vertex="1">
          <mxGeometry x="1720" y="-305.99999999999994" width="210" height="30" as="geometry" />
        </mxCell>
        <mxCell id="9d43khAp4z9KavK-o5Pn-126" value="" style="endArrow=classic;html=1;endSize=8;arcSize=0;rounded=0;entryX=0.1;entryY=1;entryDx=0;entryDy=0;exitX=0.5;exitY=0;exitDx=0;exitDy=0;edgeStyle=orthogonalEdgeStyle;" parent="1" source="9d43khAp4z9KavK-o5Pn-22" target="9d43khAp4z9KavK-o5Pn-125" edge="1">
          <mxGeometry width="50" height="50" relative="1" as="geometry">
            <mxPoint x="2022" y="-231" as="sourcePoint" />
            <mxPoint x="2020" y="-536" as="targetPoint" />
            <Array as="points">
              <mxPoint x="1635" y="-226" />
              <mxPoint x="1741" y="-226" />
            </Array>
          </mxGeometry>
        </mxCell>
        <mxCell id="9d43khAp4z9KavK-o5Pn-127" value="&lt;div&gt;pko:requiresTool&lt;/div&gt;" style="edgeLabel;html=1;align=center;verticalAlign=middle;resizable=0;points=[];" parent="9d43khAp4z9KavK-o5Pn-126" vertex="1" connectable="0">
          <mxGeometry x="-0.1912" y="-1" relative="1" as="geometry">
            <mxPoint x="104" y="-64" as="offset" />
          </mxGeometry>
        </mxCell>
        <mxCell id="9d43khAp4z9KavK-o5Pn-128" value="pko:Action" style="rounded=0;whiteSpace=wrap;html=1;snapToPoint=1;points=[[0.1,0],[0.2,0],[0.3,0],[0.4,0],[0.5,0],[0.6,0],[0.7,0],[0.8,0],[0.9,0],[0,0.1],[0,0.3],[0,0.5],[0,0.7],[0,0.9],[0.1,1],[0.2,1],[0.3,1],[0.4,1],[0.5,1],[0.6,1],[0.7,1],[0.8,1],[0.9,1],[1,0.1],[1,0.3],[1,0.5],[1,0.7],[1,0.9]];fillColor=#b0e3e6;strokeColor=#0e8088;" parent="1" vertex="1">
          <mxGeometry x="1770" y="-225.99999999999994" width="210" height="30" as="geometry" />
        </mxCell>
        <mxCell id="9d43khAp4z9KavK-o5Pn-129" value="pko:Function" style="rounded=0;whiteSpace=wrap;html=1;snapToPoint=1;points=[[0.1,0],[0.2,0],[0.3,0],[0.4,0],[0.5,0],[0.6,0],[0.7,0],[0.8,0],[0.9,0],[0,0.1],[0,0.3],[0,0.5],[0,0.7],[0,0.9],[0.1,1],[0.2,1],[0.3,1],[0.4,1],[0.5,1],[0.6,1],[0.7,1],[0.8,1],[0.9,1],[1,0.1],[1,0.3],[1,0.5],[1,0.7],[1,0.9]];fillColor=#b0e3e6;strokeColor=#0e8088;" parent="1" vertex="1">
          <mxGeometry x="1770" y="-170.99999999999994" width="210" height="30" as="geometry" />
        </mxCell>
        <mxCell id="9d43khAp4z9KavK-o5Pn-130" value="" style="endArrow=classic;html=1;endSize=8;arcSize=0;rounded=0;entryX=0;entryY=0.5;entryDx=0;entryDy=0;exitX=0.6;exitY=0;exitDx=0;exitDy=0;edgeStyle=orthogonalEdgeStyle;" parent="1" source="9d43khAp4z9KavK-o5Pn-22" target="9d43khAp4z9KavK-o5Pn-128" edge="1">
          <mxGeometry width="50" height="50" relative="1" as="geometry">
            <mxPoint x="1645" y="-36" as="sourcePoint" />
            <mxPoint x="1751" y="-266" as="targetPoint" />
            <Array as="points">
              <mxPoint x="1656" y="-211" />
            </Array>
          </mxGeometry>
        </mxCell>
        <mxCell id="9d43khAp4z9KavK-o5Pn-131" value="&lt;div&gt;pko:requiresAction&lt;/div&gt;" style="edgeLabel;html=1;align=center;verticalAlign=middle;resizable=0;points=[];" parent="9d43khAp4z9KavK-o5Pn-130" vertex="1" connectable="0">
          <mxGeometry x="-0.1912" y="-1" relative="1" as="geometry">
            <mxPoint x="48" y="-52" as="offset" />
          </mxGeometry>
        </mxCell>
        <mxCell id="9d43khAp4z9KavK-o5Pn-132" value="" style="endArrow=classic;html=1;endSize=8;arcSize=0;rounded=0;entryX=0;entryY=0.5;entryDx=0;entryDy=0;exitX=0.7;exitY=0;exitDx=0;exitDy=0;edgeStyle=orthogonalEdgeStyle;" parent="1" source="9d43khAp4z9KavK-o5Pn-22" target="9d43khAp4z9KavK-o5Pn-129" edge="1">
          <mxGeometry width="50" height="50" relative="1" as="geometry">
            <mxPoint x="1666" y="-36" as="sourcePoint" />
            <mxPoint x="1780" y="-201" as="targetPoint" />
            <Array as="points">
              <mxPoint x="1677" y="-156" />
            </Array>
          </mxGeometry>
        </mxCell>
        <mxCell id="9d43khAp4z9KavK-o5Pn-133" value="&lt;div&gt;pko:requiresFunction&lt;/div&gt;" style="edgeLabel;html=1;align=center;verticalAlign=middle;resizable=0;points=[];" parent="9d43khAp4z9KavK-o5Pn-132" vertex="1" connectable="0">
          <mxGeometry x="-0.1912" y="-1" relative="1" as="geometry">
            <mxPoint x="42" y="2" as="offset" />
          </mxGeometry>
        </mxCell>
        <mxCell id="9d43khAp4z9KavK-o5Pn-134" value="" style="endArrow=classic;html=1;endSize=8;arcSize=0;rounded=0;edgeStyle=orthogonalEdgeStyle;entryX=1;entryY=0.7;entryDx=0;entryDy=0;exitX=0;exitY=0.9;exitDx=0;exitDy=0;dashed=1;startArrow=oval;startFill=1;" parent="1" source="9d43khAp4z9KavK-o5Pn-52" target="9d43khAp4z9KavK-o5Pn-136" edge="1">
          <mxGeometry width="50" height="50" relative="1" as="geometry">
            <mxPoint x="990" y="-201" as="sourcePoint" />
            <mxPoint x="800" y="-208.06" as="targetPoint" />
            <Array as="points">
              <mxPoint x="980" y="-85" />
            </Array>
          </mxGeometry>
        </mxCell>
        <mxCell id="9d43khAp4z9KavK-o5Pn-135" value="&lt;div&gt;pko:isAdoptedBy&lt;/div&gt;" style="edgeLabel;html=1;align=center;verticalAlign=middle;resizable=0;points=[];" parent="9d43khAp4z9KavK-o5Pn-134" vertex="1" connectable="0">
          <mxGeometry x="-0.1912" y="-1" relative="1" as="geometry">
            <mxPoint x="-63" as="offset" />
          </mxGeometry>
        </mxCell>
        <mxCell id="9d43khAp4z9KavK-o5Pn-136" value="prov:Organization" style="rounded=0;whiteSpace=wrap;html=1;snapToPoint=1;points=[[0.1,0],[0.2,0],[0.3,0],[0.4,0],[0.5,0],[0.6,0],[0.7,0],[0.8,0],[0.9,0],[0,0.1],[0,0.3],[0,0.5],[0,0.7],[0,0.9],[0.1,1],[0.2,1],[0.3,1],[0.4,1],[0.5,1],[0.6,1],[0.7,1],[0.8,1],[0.9,1],[1,0.1],[1,0.3],[1,0.5],[1,0.7],[1,0.9]];fillColor=#d0cee2;strokeColor=#56517e;" parent="1" vertex="1">
          <mxGeometry x="660" y="-106.06" width="160" height="30" as="geometry" />
        </mxCell>
        <mxCell id="9d43khAp4z9KavK-o5Pn-137" value="pko:ProcedureExecutionStatus" style="rounded=0;whiteSpace=wrap;html=1;snapToPoint=1;points=[[0.1,0],[0.2,0],[0.3,0],[0.4,0],[0.5,0],[0.6,0],[0.7,0],[0.8,0],[0.9,0],[0,0.1],[0,0.3],[0,0.5],[0,0.7],[0,0.9],[0.1,1],[0.2,1],[0.3,1],[0.4,1],[0.5,1],[0.6,1],[0.7,1],[0.8,1],[0.9,1],[1,0.1],[1,0.3],[1,0.5],[1,0.7],[1,0.9]];fillColor=#b0e3e6;strokeColor=#0e8088;" parent="1" vertex="1">
          <mxGeometry x="460" y="458" width="190" height="30" as="geometry" />
        </mxCell>
        <mxCell id="9d43khAp4z9KavK-o5Pn-138" value="" style="endArrow=classic;html=1;exitX=0;exitY=0.3;exitDx=0;exitDy=0;endSize=8;arcSize=0;rounded=0;edgeStyle=orthogonalEdgeStyle;entryX=0.2;entryY=0;entryDx=0;entryDy=0;dashed=1;" parent="1" source="9d43khAp4z9KavK-o5Pn-84" target="9d43khAp4z9KavK-o5Pn-137" edge="1">
          <mxGeometry width="50" height="50" relative="1" as="geometry">
            <mxPoint x="299.90999999999997" y="349" as="sourcePoint" />
            <mxPoint x="569.91" y="444" as="targetPoint" />
            <Array as="points" />
          </mxGeometry>
        </mxCell>
        <mxCell id="9d43khAp4z9KavK-o5Pn-139" value="&lt;div&gt;adms:status&lt;/div&gt;" style="edgeLabel;html=1;align=center;verticalAlign=middle;resizable=0;points=[];" parent="9d43khAp4z9KavK-o5Pn-138" vertex="1" connectable="0">
          <mxGeometry x="-0.1912" y="-1" relative="1" as="geometry">
            <mxPoint x="1" y="44" as="offset" />
          </mxGeometry>
        </mxCell>
        <mxCell id="9d43khAp4z9KavK-o5Pn-140" value="pko:ProcedureTarget" style="rounded=0;whiteSpace=wrap;html=1;snapToPoint=1;points=[[0.1,0],[0.2,0],[0.3,0],[0.4,0],[0.5,0],[0.6,0],[0.7,0],[0.8,0],[0.9,0],[0,0.1],[0,0.3],[0,0.5],[0,0.7],[0,0.9],[0.1,1],[0.2,1],[0.3,1],[0.4,1],[0.5,1],[0.6,1],[0.7,1],[0.8,1],[0.9,1],[1,0.1],[1,0.3],[1,0.5],[1,0.7],[1,0.9]];fillColor=#b0e3e6;strokeColor=#0e8088;" parent="1" vertex="1">
          <mxGeometry x="410" y="-416" width="210" height="30" as="geometry" />
        </mxCell>
        <mxCell id="9d43khAp4z9KavK-o5Pn-141" value="prov:Location" style="rounded=0;whiteSpace=wrap;html=1;snapToPoint=1;points=[[0.1,0],[0.2,0],[0.3,0],[0.4,0],[0.5,0],[0.6,0],[0.7,0],[0.8,0],[0.9,0],[0,0.1],[0,0.3],[0,0.5],[0,0.7],[0,0.9],[0.1,1],[0.2,1],[0.3,1],[0.4,1],[0.5,1],[0.6,1],[0.7,1],[0.8,1],[0.9,1],[1,0.1],[1,0.3],[1,0.5],[1,0.7],[1,0.9]];fillColor=#d0cee2;strokeColor=#56517e;" parent="1" vertex="1">
          <mxGeometry x="310" y="-276" width="130" height="30" as="geometry" />
        </mxCell>
        <mxCell id="9d43khAp4z9KavK-o5Pn-142" value="" style="endArrow=classic;html=1;exitX=0.1;exitY=0;exitDx=0;exitDy=0;endSize=8;arcSize=0;rounded=0;edgeStyle=orthogonalEdgeStyle;entryX=1;entryY=0.1;entryDx=0;entryDy=0;" parent="1" source="9d43khAp4z9KavK-o5Pn-8" target="9d43khAp4z9KavK-o5Pn-140" edge="1">
          <mxGeometry width="50" height="50" relative="1" as="geometry">
            <mxPoint x="1200" y="-226" as="sourcePoint" />
            <mxPoint x="620" y="-401" as="targetPoint" />
            <Array as="points">
              <mxPoint x="1001" y="-413" />
            </Array>
          </mxGeometry>
        </mxCell>
        <mxCell id="9d43khAp4z9KavK-o5Pn-143" value="pko:hasProcedureTarget" style="edgeLabel;html=1;align=center;verticalAlign=middle;resizable=0;points=[];" parent="9d43khAp4z9KavK-o5Pn-142" vertex="1" connectable="0">
          <mxGeometry x="-0.1912" y="-1" relative="1" as="geometry">
            <mxPoint x="-57" y="1" as="offset" />
          </mxGeometry>
        </mxCell>
        <mxCell id="9d43khAp4z9KavK-o5Pn-144" value="" style="endArrow=classic;html=1;exitX=0;exitY=0.5;exitDx=0;exitDy=0;endSize=8;arcSize=0;rounded=0;edgeStyle=orthogonalEdgeStyle;entryX=0.1;entryY=0;entryDx=0;entryDy=0;dashed=1;" parent="1" source="9d43khAp4z9KavK-o5Pn-140" target="9d43khAp4z9KavK-o5Pn-141" edge="1">
          <mxGeometry width="50" height="50" relative="1" as="geometry">
            <mxPoint x="1011" y="-341" as="sourcePoint" />
            <mxPoint x="630" y="-391" as="targetPoint" />
            <Array as="points">
              <mxPoint x="323" y="-401" />
            </Array>
          </mxGeometry>
        </mxCell>
        <mxCell id="9d43khAp4z9KavK-o5Pn-145" value="prov:atLocation" style="edgeLabel;html=1;align=center;verticalAlign=middle;resizable=0;points=[];" parent="9d43khAp4z9KavK-o5Pn-144" vertex="1" connectable="0">
          <mxGeometry x="-0.1912" y="-1" relative="1" as="geometry">
            <mxPoint x="16" y="51" as="offset" />
          </mxGeometry>
        </mxCell>
        <mxCell id="9d43khAp4z9KavK-o5Pn-146" value="" style="endArrow=classic;html=1;exitX=0.3;exitY=0;exitDx=0;exitDy=0;endSize=8;arcSize=0;rounded=0;edgeStyle=orthogonalEdgeStyle;entryX=0.9;entryY=1;entryDx=0;entryDy=0;dashed=1;" parent="1" source="9d43khAp4z9KavK-o5Pn-22" target="9d43khAp4z9KavK-o5Pn-119" edge="1">
          <mxGeometry width="50" height="50" relative="1" as="geometry">
            <mxPoint x="1480" y="-342" as="sourcePoint" />
            <mxPoint x="1480" y="-366" as="targetPoint" />
            <Array as="points">
              <mxPoint x="1593" y="-366" />
              <mxPoint x="1234" y="-366" />
            </Array>
          </mxGeometry>
        </mxCell>
        <mxCell id="9d43khAp4z9KavK-o5Pn-147" value="dct:references" style="edgeLabel;html=1;align=center;verticalAlign=middle;resizable=0;points=[];" parent="9d43khAp4z9KavK-o5Pn-146" vertex="1" connectable="0">
          <mxGeometry x="0.0192" y="-1" relative="1" as="geometry">
            <mxPoint x="-38" as="offset" />
          </mxGeometry>
        </mxCell>
        <mxCell id="9d43khAp4z9KavK-o5Pn-148" value="dct:identifier string" style="rounded=0;whiteSpace=wrap;html=1;snapToPoint=1;points=[[0.1,0],[0.2,0],[0.3,0],[0.4,0],[0.5,0],[0.6,0],[0.7,0],[0.8,0],[0.9,0],[0,0.1],[0,0.3],[0,0.5],[0,0.7],[0,0.9],[0.1,1],[0.2,1],[0.3,1],[0.4,1],[0.5,1],[0.6,1],[0.7,1],[0.8,1],[0.9,1],[1,0.1],[1,0.3],[1,0.5],[1,0.7],[1,0.9]];dashed=1;" parent="1" vertex="1">
          <mxGeometry x="410" y="-385.99999999999994" width="210" height="30" as="geometry" />
        </mxCell>
        <mxCell id="9d43khAp4z9KavK-o5Pn-149" value="dct:title string" style="rounded=0;whiteSpace=wrap;html=1;snapToPoint=1;points=[[0.1,0],[0.2,0],[0.3,0],[0.4,0],[0.5,0],[0.6,0],[0.7,0],[0.8,0],[0.9,0],[0,0.1],[0,0.3],[0,0.5],[0,0.7],[0,0.9],[0.1,1],[0.2,1],[0.3,1],[0.4,1],[0.5,1],[0.6,1],[0.7,1],[0.8,1],[0.9,1],[1,0.1],[1,0.3],[1,0.5],[1,0.7],[1,0.9]];dashed=1;" parent="1" vertex="1">
          <mxGeometry x="410" y="-355.99999999999994" width="210" height="30" as="geometry" />
        </mxCell>
        <mxCell id="9d43khAp4z9KavK-o5Pn-150" value="pko:FrequentlyAskedQuestion" style="rounded=0;whiteSpace=wrap;html=1;snapToPoint=1;points=[[0.1,0],[0.2,0],[0.3,0],[0.4,0],[0.5,0],[0.6,0],[0.7,0],[0.8,0],[0.9,0],[0,0.1],[0,0.3],[0,0.5],[0,0.7],[0,0.9],[0.1,1],[0.2,1],[0.3,1],[0.4,1],[0.5,1],[0.6,1],[0.7,1],[0.8,1],[0.9,1],[1,0.1],[1,0.3],[1,0.5],[1,0.7],[1,0.9]];fillColor=#b0e3e6;strokeColor=#0e8088;" parent="1" vertex="1">
          <mxGeometry x="1680" y="-760" width="210" height="30" as="geometry" />
        </mxCell>
        <mxCell id="9d43khAp4z9KavK-o5Pn-151" value="" style="endArrow=block;html=1;fontColor=#000099;exitX=0.5;exitY=0;exitDx=0;exitDy=0;endFill=0;endSize=8;arcSize=0;rounded=0;edgeStyle=orthogonalEdgeStyle;entryX=0.8;entryY=0;entryDx=0;entryDy=0;" parent="1" source="9d43khAp4z9KavK-o5Pn-150" target="9d43khAp4z9KavK-o5Pn-9" edge="1">
          <mxGeometry width="50" height="50" relative="1" as="geometry">
            <mxPoint x="1705" y="-697" as="sourcePoint" />
            <mxPoint x="1790" y="-836" as="targetPoint" />
            <Array as="points">
              <mxPoint x="1785" y="-796" />
              <mxPoint x="1218" y="-796" />
            </Array>
          </mxGeometry>
        </mxCell>
        <mxCell id="9d43khAp4z9KavK-o5Pn-152" value="pko:question: string" style="rounded=0;whiteSpace=wrap;html=1;snapToPoint=1;points=[[0.1,0],[0.2,0],[0.3,0],[0.4,0],[0.5,0],[0.6,0],[0.7,0],[0.8,0],[0.9,0],[0,0.1],[0,0.3],[0,0.5],[0,0.7],[0,0.9],[0.1,1],[0.2,1],[0.3,1],[0.4,1],[0.5,1],[0.6,1],[0.7,1],[0.8,1],[0.9,1],[1,0.1],[1,0.3],[1,0.5],[1,0.7],[1,0.9]];" parent="1" vertex="1">
          <mxGeometry x="1680" y="-730" width="210" height="30" as="geometry" />
        </mxCell>
        <mxCell id="9d43khAp4z9KavK-o5Pn-153" value="pko:answer: string" style="rounded=0;whiteSpace=wrap;html=1;snapToPoint=1;points=[[0.1,0],[0.2,0],[0.3,0],[0.4,0],[0.5,0],[0.6,0],[0.7,0],[0.8,0],[0.9,0],[0,0.1],[0,0.3],[0,0.5],[0,0.7],[0,0.9],[0.1,1],[0.2,1],[0.3,1],[0.4,1],[0.5,1],[0.6,1],[0.7,1],[0.8,1],[0.9,1],[1,0.1],[1,0.3],[1,0.5],[1,0.7],[1,0.9]];" parent="1" vertex="1">
          <mxGeometry x="1680" y="-700" width="210" height="30" as="geometry" />
        </mxCell>
        <mxCell id="9d43khAp4z9KavK-o5Pn-154" value="pko:FAQTarget" style="rounded=0;whiteSpace=wrap;html=1;snapToPoint=1;points=[[0.1,0],[0.2,0],[0.3,0],[0.4,0],[0.5,0],[0.6,0],[0.7,0],[0.8,0],[0.9,0],[0,0.1],[0,0.3],[0,0.5],[0,0.7],[0,0.9],[0.1,1],[0.2,1],[0.3,1],[0.4,1],[0.5,1],[0.6,1],[0.7,1],[0.8,1],[0.9,1],[1,0.1],[1,0.3],[1,0.5],[1,0.7],[1,0.9]];fillColor=#b0e3e6;strokeColor=#0e8088;" parent="1" vertex="1">
          <mxGeometry x="1565" y="-586" width="210" height="30" as="geometry" />
        </mxCell>
        <mxCell id="9d43khAp4z9KavK-o5Pn-155" value="dct:identifier string" style="rounded=0;whiteSpace=wrap;html=1;snapToPoint=1;points=[[0.1,0],[0.2,0],[0.3,0],[0.4,0],[0.5,0],[0.6,0],[0.7,0],[0.8,0],[0.9,0],[0,0.1],[0,0.3],[0,0.5],[0,0.7],[0,0.9],[0.1,1],[0.2,1],[0.3,1],[0.4,1],[0.5,1],[0.6,1],[0.7,1],[0.8,1],[0.9,1],[1,0.1],[1,0.3],[1,0.5],[1,0.7],[1,0.9]];dashed=1;" parent="1" vertex="1">
          <mxGeometry x="1565" y="-556" width="210" height="30" as="geometry" />
        </mxCell>
        <mxCell id="9d43khAp4z9KavK-o5Pn-156" value="dct:title string" style="rounded=0;whiteSpace=wrap;html=1;snapToPoint=1;points=[[0.1,0],[0.2,0],[0.3,0],[0.4,0],[0.5,0],[0.6,0],[0.7,0],[0.8,0],[0.9,0],[0,0.1],[0,0.3],[0,0.5],[0,0.7],[0,0.9],[0.1,1],[0.2,1],[0.3,1],[0.4,1],[0.5,1],[0.6,1],[0.7,1],[0.8,1],[0.9,1],[1,0.1],[1,0.3],[1,0.5],[1,0.7],[1,0.9]];dashed=1;" parent="1" vertex="1">
          <mxGeometry x="1565" y="-526" width="210" height="30" as="geometry" />
        </mxCell>
        <mxCell id="9d43khAp4z9KavK-o5Pn-157" value="" style="endArrow=classic;html=1;endSize=8;arcSize=0;rounded=0;edgeStyle=orthogonalEdgeStyle;entryX=0.5;entryY=0;entryDx=0;entryDy=0;" parent="1" source="9d43khAp4z9KavK-o5Pn-150" target="9d43khAp4z9KavK-o5Pn-154" edge="1">
          <mxGeometry width="50" height="50" relative="1" as="geometry">
            <mxPoint x="2351" y="-586" as="sourcePoint" />
            <mxPoint x="1970" y="-636" as="targetPoint" />
            <Array as="points">
              <mxPoint x="1670" y="-751" />
              <mxPoint x="1670" y="-586" />
            </Array>
          </mxGeometry>
        </mxCell>
        <mxCell id="9d43khAp4z9KavK-o5Pn-158" value="pko:hasFAQTarget" style="edgeLabel;html=1;align=center;verticalAlign=middle;resizable=0;points=[];" parent="9d43khAp4z9KavK-o5Pn-157" vertex="1" connectable="0">
          <mxGeometry x="-0.1912" y="-1" relative="1" as="geometry">
            <mxPoint x="1" y="64" as="offset" />
          </mxGeometry>
        </mxCell>
        <mxCell id="9d43khAp4z9KavK-o5Pn-159" value="pko:FAQCategory" style="rounded=0;whiteSpace=wrap;html=1;snapToPoint=1;points=[[0.1,0],[0.2,0],[0.3,0],[0.4,0],[0.5,0],[0.6,0],[0.7,0],[0.8,0],[0.9,0],[0,0.1],[0,0.3],[0,0.5],[0,0.7],[0,0.9],[0.1,1],[0.2,1],[0.3,1],[0.4,1],[0.5,1],[0.6,1],[0.7,1],[0.8,1],[0.9,1],[1,0.1],[1,0.3],[1,0.5],[1,0.7],[1,0.9]];fillColor=#b0e3e6;strokeColor=#0e8088;" parent="1" vertex="1">
          <mxGeometry x="1795" y="-586" width="210" height="30" as="geometry" />
        </mxCell>
        <mxCell id="9d43khAp4z9KavK-o5Pn-160" value="dct:identifier string" style="rounded=0;whiteSpace=wrap;html=1;snapToPoint=1;points=[[0.1,0],[0.2,0],[0.3,0],[0.4,0],[0.5,0],[0.6,0],[0.7,0],[0.8,0],[0.9,0],[0,0.1],[0,0.3],[0,0.5],[0,0.7],[0,0.9],[0.1,1],[0.2,1],[0.3,1],[0.4,1],[0.5,1],[0.6,1],[0.7,1],[0.8,1],[0.9,1],[1,0.1],[1,0.3],[1,0.5],[1,0.7],[1,0.9]];dashed=1;" parent="1" vertex="1">
          <mxGeometry x="1795" y="-556" width="210" height="30" as="geometry" />
        </mxCell>
        <mxCell id="9d43khAp4z9KavK-o5Pn-161" value="dct:title string" style="rounded=0;whiteSpace=wrap;html=1;snapToPoint=1;points=[[0.1,0],[0.2,0],[0.3,0],[0.4,0],[0.5,0],[0.6,0],[0.7,0],[0.8,0],[0.9,0],[0,0.1],[0,0.3],[0,0.5],[0,0.7],[0,0.9],[0.1,1],[0.2,1],[0.3,1],[0.4,1],[0.5,1],[0.6,1],[0.7,1],[0.8,1],[0.9,1],[1,0.1],[1,0.3],[1,0.5],[1,0.7],[1,0.9]];dashed=1;" parent="1" vertex="1">
          <mxGeometry x="1795" y="-526" width="210" height="30" as="geometry" />
        </mxCell>
        <mxCell id="9d43khAp4z9KavK-o5Pn-162" value="" style="endArrow=classic;html=1;exitX=1;exitY=0.3;exitDx=0;exitDy=0;endSize=8;arcSize=0;rounded=0;edgeStyle=orthogonalEdgeStyle;entryX=0.5;entryY=0;entryDx=0;entryDy=0;" parent="1" source="9d43khAp4z9KavK-o5Pn-150" target="9d43khAp4z9KavK-o5Pn-159" edge="1">
          <mxGeometry width="50" height="50" relative="1" as="geometry">
            <mxPoint x="1930" y="-611" as="sourcePoint" />
            <mxPoint x="2013" y="-496" as="targetPoint" />
            <Array as="points">
              <mxPoint x="1900" y="-751" />
              <mxPoint x="1900" y="-586" />
            </Array>
          </mxGeometry>
        </mxCell>
        <mxCell id="9d43khAp4z9KavK-o5Pn-163" value="pko:hasFAQCategory" style="edgeLabel;html=1;align=center;verticalAlign=middle;resizable=0;points=[];" parent="9d43khAp4z9KavK-o5Pn-162" vertex="1" connectable="0">
          <mxGeometry x="-0.1912" y="-1" relative="1" as="geometry">
            <mxPoint x="1" y="65" as="offset" />
          </mxGeometry>
        </mxCell>
        <mxCell id="9d43khAp4z9KavK-o5Pn-164" value="pko:IssueOccurrence" style="rounded=0;whiteSpace=wrap;html=1;snapToPoint=1;points=[[0.1,0],[0.2,0],[0.3,0],[0.4,0],[0.5,0],[0.6,0],[0.7,0],[0.8,0],[0.9,0],[0,0.1],[0,0.3],[0,0.5],[0,0.7],[0,0.9],[0.1,1],[0.2,1],[0.3,1],[0.4,1],[0.5,1],[0.6,1],[0.7,1],[0.8,1],[0.9,1],[1,0.1],[1,0.3],[1,0.5],[1,0.7],[1,0.9]];fillColor=#b0e3e6;strokeColor=#0e8088;" parent="1" vertex="1">
          <mxGeometry x="1320.95" y="660" width="210" height="30" as="geometry" />
        </mxCell>
        <mxCell id="9d43khAp4z9KavK-o5Pn-165" value="" style="endArrow=classic;html=1;endSize=8;arcSize=0;rounded=0;exitX=1;exitY=0.9;exitDx=0;exitDy=0;edgeStyle=orthogonalEdgeStyle;entryX=0.2;entryY=0;entryDx=0;entryDy=0;" parent="1" source="9d43khAp4z9KavK-o5Pn-99" target="9d43khAp4z9KavK-o5Pn-164" edge="1">
          <mxGeometry width="50" height="50" relative="1" as="geometry">
            <mxPoint x="1382" y="444" as="sourcePoint" />
            <mxPoint x="1220" y="367" as="targetPoint" />
            <Array as="points">
              <mxPoint x="1283" y="634" />
              <mxPoint x="1363" y="634" />
            </Array>
          </mxGeometry>
        </mxCell>
        <mxCell id="9d43khAp4z9KavK-o5Pn-166" value="&lt;div&gt;pko:hasIssueOccurrence&lt;/div&gt;" style="edgeLabel;html=1;align=center;verticalAlign=middle;resizable=0;points=[];" parent="9d43khAp4z9KavK-o5Pn-165" vertex="1" connectable="0">
          <mxGeometry x="-0.1912" y="-1" relative="1" as="geometry">
            <mxPoint x="42" y="1" as="offset" />
          </mxGeometry>
        </mxCell>
        <mxCell id="9d43khAp4z9KavK-o5Pn-167" value="pko:Error" style="rounded=0;whiteSpace=wrap;html=1;snapToPoint=1;points=[[0.1,0],[0.2,0],[0.3,0],[0.4,0],[0.5,0],[0.6,0],[0.7,0],[0.8,0],[0.9,0],[0,0.1],[0,0.3],[0,0.5],[0,0.7],[0,0.9],[0.1,1],[0.2,1],[0.3,1],[0.4,1],[0.5,1],[0.6,1],[0.7,1],[0.8,1],[0.9,1],[1,0.1],[1,0.3],[1,0.5],[1,0.7],[1,0.9]];fillColor=#b0e3e6;strokeColor=#0e8088;" parent="1" vertex="1">
          <mxGeometry x="1314.95" y="800" width="210" height="30" as="geometry" />
        </mxCell>
        <mxCell id="9d43khAp4z9KavK-o5Pn-168" value="pko:errorCode: string" style="rounded=0;whiteSpace=wrap;html=1;snapToPoint=1;points=[[0.1,0],[0.2,0],[0.3,0],[0.4,0],[0.5,0],[0.6,0],[0.7,0],[0.8,0],[0.9,0],[0,0.1],[0,0.3],[0,0.5],[0,0.7],[0,0.9],[0.1,1],[0.2,1],[0.3,1],[0.4,1],[0.5,1],[0.6,1],[0.7,1],[0.8,1],[0.9,1],[1,0.1],[1,0.3],[1,0.5],[1,0.7],[1,0.9]];" parent="1" vertex="1">
          <mxGeometry x="1314.95" y="860" width="210" height="30" as="geometry" />
        </mxCell>
        <mxCell id="9d43khAp4z9KavK-o5Pn-169" value="dct:description string" style="rounded=0;whiteSpace=wrap;html=1;snapToPoint=1;points=[[0.1,0],[0.2,0],[0.3,0],[0.4,0],[0.5,0],[0.6,0],[0.7,0],[0.8,0],[0.9,0],[0,0.1],[0,0.3],[0,0.5],[0,0.7],[0,0.9],[0.1,1],[0.2,1],[0.3,1],[0.4,1],[0.5,1],[0.6,1],[0.7,1],[0.8,1],[0.9,1],[1,0.1],[1,0.3],[1,0.5],[1,0.7],[1,0.9]];dashed=1;" parent="1" vertex="1">
          <mxGeometry x="1314.95" y="830" width="210" height="30" as="geometry" />
        </mxCell>
        <mxCell id="9d43khAp4z9KavK-o5Pn-170" value="pko:errorCause: string" style="rounded=0;whiteSpace=wrap;html=1;snapToPoint=1;points=[[0.1,0],[0.2,0],[0.3,0],[0.4,0],[0.5,0],[0.6,0],[0.7,0],[0.8,0],[0.9,0],[0,0.1],[0,0.3],[0,0.5],[0,0.7],[0,0.9],[0.1,1],[0.2,1],[0.3,1],[0.4,1],[0.5,1],[0.6,1],[0.7,1],[0.8,1],[0.9,1],[1,0.1],[1,0.3],[1,0.5],[1,0.7],[1,0.9]];" parent="1" vertex="1">
          <mxGeometry x="1314.95" y="890" width="210" height="30" as="geometry" />
        </mxCell>
        <mxCell id="9d43khAp4z9KavK-o5Pn-171" value="" style="endArrow=classic;html=1;endSize=8;arcSize=0;rounded=0;exitX=0;exitY=0.5;exitDx=0;exitDy=0;entryX=0;entryY=0.5;entryDx=0;entryDy=0;edgeStyle=orthogonalEdgeStyle;" parent="1" source="9d43khAp4z9KavK-o5Pn-178" target="9d43khAp4z9KavK-o5Pn-167" edge="1">
          <mxGeometry width="50" height="50" relative="1" as="geometry">
            <mxPoint x="1471.95" y="718" as="sourcePoint" />
            <mxPoint x="1469.95" y="890" as="targetPoint" />
            <Array as="points">
              <mxPoint x="1280" y="765" />
              <mxPoint x="1280" y="815" />
            </Array>
          </mxGeometry>
        </mxCell>
        <mxCell id="9d43khAp4z9KavK-o5Pn-172" value="&lt;div&gt;pko:hasEncounteredError&lt;/div&gt;" style="edgeLabel;html=1;align=center;verticalAlign=middle;resizable=0;points=[];" parent="9d43khAp4z9KavK-o5Pn-171" vertex="1" connectable="0">
          <mxGeometry x="-0.1912" y="-1" relative="1" as="geometry">
            <mxPoint x="11" y="14" as="offset" />
          </mxGeometry>
        </mxCell>
        <mxCell id="9d43khAp4z9KavK-o5Pn-173" value="prov:InstantaneousEvent" style="rounded=0;whiteSpace=wrap;html=1;snapToPoint=1;points=[[0.1,0],[0.2,0],[0.3,0],[0.4,0],[0.5,0],[0.6,0],[0.7,0],[0.8,0],[0.9,0],[0,0.1],[0,0.3],[0,0.5],[0,0.7],[0,0.9],[0.1,1],[0.2,1],[0.3,1],[0.4,1],[0.5,1],[0.6,1],[0.7,1],[0.8,1],[0.9,1],[1,0.1],[1,0.3],[1,0.5],[1,0.7],[1,0.9]];fillColor=#d0cee2;strokeColor=#56517e;" parent="1" vertex="1">
          <mxGeometry x="1089.95" y="630" width="180" height="30" as="geometry" />
        </mxCell>
        <mxCell id="9d43khAp4z9KavK-o5Pn-174" value="" style="endArrow=block;html=1;fontColor=#000099;exitX=0;exitY=0.3;exitDx=0;exitDy=0;endFill=0;endSize=8;arcSize=0;rounded=0;edgeStyle=orthogonalEdgeStyle;entryX=1;entryY=0.5;entryDx=0;entryDy=0;" parent="1" source="9d43khAp4z9KavK-o5Pn-164" target="9d43khAp4z9KavK-o5Pn-173" edge="1">
          <mxGeometry width="50" height="50" relative="1" as="geometry">
            <mxPoint x="1164.95" y="879" as="sourcePoint" />
            <mxPoint x="1249.95" y="740" as="targetPoint" />
            <Array as="points">
              <mxPoint x="1290" y="669" />
              <mxPoint x="1290" y="645" />
            </Array>
          </mxGeometry>
        </mxCell>
        <mxCell id="9d43khAp4z9KavK-o5Pn-175" value="prov:atTime dateTime" style="rounded=0;whiteSpace=wrap;html=1;snapToPoint=1;points=[[0.1,0],[0.2,0],[0.3,0],[0.4,0],[0.5,0],[0.6,0],[0.7,0],[0.8,0],[0.9,0],[0,0.1],[0,0.3],[0,0.5],[0,0.7],[0,0.9],[0.1,1],[0.2,1],[0.3,1],[0.4,1],[0.5,1],[0.6,1],[0.7,1],[0.8,1],[0.9,1],[1,0.1],[1,0.3],[1,0.5],[1,0.7],[1,0.9]];dashed=1;" parent="1" vertex="1">
          <mxGeometry x="1089.95" y="660" width="180" height="30" as="geometry" />
        </mxCell>
        <mxCell id="9d43khAp4z9KavK-o5Pn-176" value="pko:notesByUser: string" style="rounded=0;whiteSpace=wrap;html=1;snapToPoint=1;points=[[0.1,0],[0.2,0],[0.3,0],[0.4,0],[0.5,0],[0.6,0],[0.7,0],[0.8,0],[0.9,0],[0,0.1],[0,0.3],[0,0.5],[0,0.7],[0,0.9],[0.1,1],[0.2,1],[0.3,1],[0.4,1],[0.5,1],[0.6,1],[0.7,1],[0.8,1],[0.9,1],[1,0.1],[1,0.3],[1,0.5],[1,0.7],[1,0.9]];dashed=1;" parent="1" vertex="1">
          <mxGeometry x="1320.95" y="690" width="210" height="30" as="geometry" />
        </mxCell>
        <mxCell id="9d43khAp4z9KavK-o5Pn-177" value="pko:issueCauseByUser: string" style="rounded=0;whiteSpace=wrap;html=1;snapToPoint=1;points=[[0.1,0],[0.2,0],[0.3,0],[0.4,0],[0.5,0],[0.6,0],[0.7,0],[0.8,0],[0.9,0],[0,0.1],[0,0.3],[0,0.5],[0,0.7],[0,0.9],[0.1,1],[0.2,1],[0.3,1],[0.4,1],[0.5,1],[0.6,1],[0.7,1],[0.8,1],[0.9,1],[1,0.1],[1,0.3],[1,0.5],[1,0.7],[1,0.9]];" parent="1" vertex="1">
          <mxGeometry x="1320.95" y="720" width="210" height="30" as="geometry" />
        </mxCell>
        <mxCell id="9d43khAp4z9KavK-o5Pn-178" value="pko:issueSolutionByUser: string" style="rounded=0;whiteSpace=wrap;html=1;snapToPoint=1;points=[[0.1,0],[0.2,0],[0.3,0],[0.4,0],[0.5,0],[0.6,0],[0.7,0],[0.8,0],[0.9,0],[0,0.1],[0,0.3],[0,0.5],[0,0.7],[0,0.9],[0.1,1],[0.2,1],[0.3,1],[0.4,1],[0.5,1],[0.6,1],[0.7,1],[0.8,1],[0.9,1],[1,0.1],[1,0.3],[1,0.5],[1,0.7],[1,0.9]];" parent="1" vertex="1">
          <mxGeometry x="1320.95" y="750" width="210" height="30" as="geometry" />
        </mxCell>
        <mxCell id="9d43khAp4z9KavK-o5Pn-179" value="" style="endArrow=classic;html=1;endSize=8;arcSize=0;rounded=0;exitX=0;exitY=0.7;exitDx=0;exitDy=0;entryX=1;entryY=0.9;entryDx=0;entryDy=0;edgeStyle=orthogonalEdgeStyle;" parent="1" source="9d43khAp4z9KavK-o5Pn-54" target="9d43khAp4z9KavK-o5Pn-167" edge="1">
          <mxGeometry width="50" height="50" relative="1" as="geometry">
            <mxPoint x="1291" y="439" as="sourcePoint" />
            <mxPoint x="1285" y="579" as="targetPoint" />
            <Array as="points">
              <mxPoint x="1510" y="125" />
              <mxPoint x="1510" y="606" />
              <mxPoint x="1635" y="606" />
              <mxPoint x="1635" y="827" />
            </Array>
          </mxGeometry>
        </mxCell>
        <mxCell id="9d43khAp4z9KavK-o5Pn-180" value="&lt;div&gt;pko:addressesError&lt;/div&gt;" style="edgeLabel;html=1;align=center;verticalAlign=middle;resizable=0;points=[];" parent="9d43khAp4z9KavK-o5Pn-179" vertex="1" connectable="0">
          <mxGeometry x="-0.1912" y="-1" relative="1" as="geometry">
            <mxPoint x="131" y="152" as="offset" />
          </mxGeometry>
        </mxCell>
        <mxCell id="9d43khAp4z9KavK-o5Pn-181" value="pko:UserQuestionOccurrence" style="rounded=0;whiteSpace=wrap;html=1;snapToPoint=1;points=[[0.1,0],[0.2,0],[0.3,0],[0.4,0],[0.5,0],[0.6,0],[0.7,0],[0.8,0],[0.9,0],[0,0.1],[0,0.3],[0,0.5],[0,0.7],[0,0.9],[0.1,1],[0.2,1],[0.3,1],[0.4,1],[0.5,1],[0.6,1],[0.7,1],[0.8,1],[0.9,1],[1,0.1],[1,0.3],[1,0.5],[1,0.7],[1,0.9]];fillColor=#b0e3e6;strokeColor=#0e8088;" parent="1" vertex="1">
          <mxGeometry x="840" y="660" width="210" height="30" as="geometry" />
        </mxCell>
        <mxCell id="9d43khAp4z9KavK-o5Pn-182" value="" style="endArrow=block;html=1;fontColor=#000099;exitX=1;exitY=0.5;exitDx=0;exitDy=0;endFill=0;endSize=8;arcSize=0;rounded=0;edgeStyle=orthogonalEdgeStyle;entryX=0;entryY=0.5;entryDx=0;entryDy=0;" parent="1" source="9d43khAp4z9KavK-o5Pn-181" target="9d43khAp4z9KavK-o5Pn-173" edge="1">
          <mxGeometry width="50" height="50" relative="1" as="geometry">
            <mxPoint x="1331" y="691" as="sourcePoint" />
            <mxPoint x="1280" y="655" as="targetPoint" />
            <Array as="points">
              <mxPoint x="1070" y="675" />
              <mxPoint x="1070" y="645" />
            </Array>
          </mxGeometry>
        </mxCell>
        <mxCell id="9d43khAp4z9KavK-o5Pn-183" value="" style="endArrow=classic;html=1;endSize=8;arcSize=0;rounded=0;exitX=0.9;exitY=1;exitDx=0;exitDy=0;edgeStyle=orthogonalEdgeStyle;entryX=0.5;entryY=0;entryDx=0;entryDy=0;" parent="1" source="9d43khAp4z9KavK-o5Pn-99" target="9d43khAp4z9KavK-o5Pn-181" edge="1">
          <mxGeometry width="50" height="50" relative="1" as="geometry">
            <mxPoint x="1293" y="237" as="sourcePoint" />
            <mxPoint x="1373" y="670" as="targetPoint" />
            <Array as="points">
              <mxPoint x="1260" y="242" />
              <mxPoint x="1260" y="544" />
              <mxPoint x="945" y="544" />
            </Array>
          </mxGeometry>
        </mxCell>
        <mxCell id="9d43khAp4z9KavK-o5Pn-184" value="&lt;div&gt;pko:hasUserQuestionOccurrence&lt;/div&gt;" style="edgeLabel;html=1;align=center;verticalAlign=middle;resizable=0;points=[];" parent="9d43khAp4z9KavK-o5Pn-183" vertex="1" connectable="0">
          <mxGeometry x="-0.1912" y="-1" relative="1" as="geometry">
            <mxPoint x="-99" y="7" as="offset" />
          </mxGeometry>
        </mxCell>
        <mxCell id="9d43khAp4z9KavK-o5Pn-185" value="pko:questionByUser: string" style="rounded=0;whiteSpace=wrap;html=1;snapToPoint=1;points=[[0.1,0],[0.2,0],[0.3,0],[0.4,0],[0.5,0],[0.6,0],[0.7,0],[0.8,0],[0.9,0],[0,0.1],[0,0.3],[0,0.5],[0,0.7],[0,0.9],[0.1,1],[0.2,1],[0.3,1],[0.4,1],[0.5,1],[0.6,1],[0.7,1],[0.8,1],[0.9,1],[1,0.1],[1,0.3],[1,0.5],[1,0.7],[1,0.9]];" parent="1" vertex="1">
          <mxGeometry x="840" y="720" width="210" height="30" as="geometry" />
        </mxCell>
        <mxCell id="9d43khAp4z9KavK-o5Pn-186" value="pko:notesByUser: string" style="rounded=0;whiteSpace=wrap;html=1;snapToPoint=1;points=[[0.1,0],[0.2,0],[0.3,0],[0.4,0],[0.5,0],[0.6,0],[0.7,0],[0.8,0],[0.9,0],[0,0.1],[0,0.3],[0,0.5],[0,0.7],[0,0.9],[0.1,1],[0.2,1],[0.3,1],[0.4,1],[0.5,1],[0.6,1],[0.7,1],[0.8,1],[0.9,1],[1,0.1],[1,0.3],[1,0.5],[1,0.7],[1,0.9]];dashed=1;" parent="1" vertex="1">
          <mxGeometry x="840" y="690" width="210" height="30" as="geometry" />
        </mxCell>
        <mxCell id="9d43khAp4z9KavK-o5Pn-187" value="dcat:Resource" style="rounded=0;whiteSpace=wrap;html=1;snapToPoint=1;points=[[0.1,0],[0.2,0],[0.3,0],[0.4,0],[0.5,0],[0.6,0],[0.7,0],[0.8,0],[0.9,0],[0,0.1],[0,0.3],[0,0.5],[0,0.7],[0,0.9],[0.1,1],[0.2,1],[0.3,1],[0.4,1],[0.5,1],[0.6,1],[0.7,1],[0.8,1],[0.9,1],[1,0.1],[1,0.3],[1,0.5],[1,0.7],[1,0.9]];fillColor=#fff2cc;strokeColor=#d6b656;" parent="1" vertex="1">
          <mxGeometry x="800" y="800" width="150" height="30" as="geometry" />
        </mxCell>
        <mxCell id="9d43khAp4z9KavK-o5Pn-188" value="" style="endArrow=classic;html=1;endSize=8;arcSize=0;rounded=0;exitX=0;exitY=0.5;exitDx=0;exitDy=0;entryX=0;entryY=0.5;entryDx=0;entryDy=0;edgeStyle=orthogonalEdgeStyle;" parent="1" source="9d43khAp4z9KavK-o5Pn-181" target="9d43khAp4z9KavK-o5Pn-187" edge="1">
          <mxGeometry width="50" height="50" relative="1" as="geometry">
            <mxPoint x="1331" y="697" as="sourcePoint" />
            <mxPoint x="1325" y="825" as="targetPoint" />
            <Array as="points">
              <mxPoint x="765" y="675" />
              <mxPoint x="765" y="815" />
            </Array>
          </mxGeometry>
        </mxCell>
        <mxCell id="9d43khAp4z9KavK-o5Pn-189" value="&lt;div&gt;pko:isQuestionAddressedBy&lt;/div&gt;" style="edgeLabel;html=1;align=center;verticalAlign=middle;resizable=0;points=[];" parent="9d43khAp4z9KavK-o5Pn-188" vertex="1" connectable="0">
          <mxGeometry x="-0.1912" y="-1" relative="1" as="geometry">
            <mxPoint x="16" y="64" as="offset" />
          </mxGeometry>
        </mxCell>
        <mxCell id="9d43khAp4z9KavK-o5Pn-190" value="pko:UserFeedbackOccurrence" style="rounded=0;whiteSpace=wrap;html=1;snapToPoint=1;points=[[0.1,0],[0.2,0],[0.3,0],[0.4,0],[0.5,0],[0.6,0],[0.7,0],[0.8,0],[0.9,0],[0,0.1],[0,0.3],[0,0.5],[0,0.7],[0,0.9],[0.1,1],[0.2,1],[0.3,1],[0.4,1],[0.5,1],[0.6,1],[0.7,1],[0.8,1],[0.9,1],[1,0.1],[1,0.3],[1,0.5],[1,0.7],[1,0.9]];fillColor=#b0e3e6;strokeColor=#0e8088;" parent="1" vertex="1">
          <mxGeometry x="450" y="660" width="240" height="30" as="geometry" />
        </mxCell>
        <mxCell id="9d43khAp4z9KavK-o5Pn-191" value="" style="endArrow=classic;html=1;endSize=8;arcSize=0;rounded=0;edgeStyle=orthogonalEdgeStyle;entryX=0.8;entryY=0;entryDx=0;entryDy=0;exitX=0.8;exitY=1;exitDx=0;exitDy=0;" parent="1" source="9d43khAp4z9KavK-o5Pn-99" target="9d43khAp4z9KavK-o5Pn-190" edge="1">
          <mxGeometry width="50" height="50" relative="1" as="geometry">
            <mxPoint x="1260" y="252" as="sourcePoint" />
            <mxPoint x="955" y="670" as="targetPoint" />
            <Array as="points">
              <mxPoint x="1241" y="252" />
              <mxPoint x="1240" y="252" />
              <mxPoint x="1240" y="504" />
              <mxPoint x="642" y="504" />
            </Array>
          </mxGeometry>
        </mxCell>
        <mxCell id="9d43khAp4z9KavK-o5Pn-192" value="&lt;div&gt;pko:hasUserFeedbackOccurrence&lt;/div&gt;" style="edgeLabel;html=1;align=center;verticalAlign=middle;resizable=0;points=[];" parent="9d43khAp4z9KavK-o5Pn-191" vertex="1" connectable="0">
          <mxGeometry x="-0.1912" y="-1" relative="1" as="geometry">
            <mxPoint x="-114" y="1" as="offset" />
          </mxGeometry>
        </mxCell>
        <mxCell id="9d43khAp4z9KavK-o5Pn-193" value="" style="endArrow=block;html=1;fontColor=#000099;exitX=0.9;exitY=0;exitDx=0;exitDy=0;endFill=0;endSize=8;arcSize=0;rounded=0;edgeStyle=orthogonalEdgeStyle;entryX=0.1;entryY=0;entryDx=0;entryDy=0;" parent="1" source="9d43khAp4z9KavK-o5Pn-190" target="9d43khAp4z9KavK-o5Pn-173" edge="1">
          <mxGeometry width="50" height="50" relative="1" as="geometry">
            <mxPoint x="1060" y="685" as="sourcePoint" />
            <mxPoint x="1100" y="655" as="targetPoint" />
            <Array as="points">
              <mxPoint x="666" y="604" />
              <mxPoint x="1108" y="604" />
            </Array>
          </mxGeometry>
        </mxCell>
        <mxCell id="9d43khAp4z9KavK-o5Pn-194" value="prov:Agent" style="rounded=0;whiteSpace=wrap;html=1;snapToPoint=1;points=[[0.1,0],[0.2,0],[0.3,0],[0.4,0],[0.5,0],[0.6,0],[0.7,0],[0.8,0],[0.9,0],[0,0.1],[0,0.3],[0,0.5],[0,0.7],[0,0.9],[0.1,1],[0.2,1],[0.3,1],[0.4,1],[0.5,1],[0.6,1],[0.7,1],[0.8,1],[0.9,1],[1,0.1],[1,0.3],[1,0.5],[1,0.7],[1,0.9]];fillColor=#d0cee2;strokeColor=#56517e;" parent="1" vertex="1">
          <mxGeometry x="881" y="944" width="180" height="30" as="geometry" />
        </mxCell>
        <mxCell id="9d43khAp4z9KavK-o5Pn-195" value="" style="endArrow=classic;html=1;exitX=0.4;exitY=0;exitDx=0;exitDy=0;endSize=8;arcSize=0;rounded=0;entryX=0.5;entryY=1;entryDx=0;entryDy=0;dashed=1;" parent="1" source="9d43khAp4z9KavK-o5Pn-9" target="9d43khAp4z9KavK-o5Pn-197" edge="1">
          <mxGeometry width="50" height="50" relative="1" as="geometry">
            <mxPoint x="1135.02" y="-792" as="sourcePoint" />
            <mxPoint x="1135.02" y="-816" as="targetPoint" />
          </mxGeometry>
        </mxCell>
        <mxCell id="9d43khAp4z9KavK-o5Pn-196" value="dct:format" style="edgeLabel;html=1;align=center;verticalAlign=middle;resizable=0;points=[];" parent="9d43khAp4z9KavK-o5Pn-195" vertex="1" connectable="0">
          <mxGeometry x="0.0192" y="-1" relative="1" as="geometry">
            <mxPoint as="offset" />
          </mxGeometry>
        </mxCell>
        <mxCell id="9d43khAp4z9KavK-o5Pn-197" value="dct:MediaTypeOrExtent" style="rounded=0;whiteSpace=wrap;html=1;snapToPoint=1;points=[[0.1,0],[0.2,0],[0.3,0],[0.4,0],[0.5,0],[0.6,0],[0.7,0],[0.8,0],[0.9,0],[0,0.1],[0,0.3],[0,0.5],[0,0.7],[0,0.9],[0.1,1],[0.2,1],[0.3,1],[0.4,1],[0.5,1],[0.6,1],[0.7,1],[0.8,1],[0.9,1],[1,0.1],[1,0.3],[1,0.5],[1,0.7],[1,0.9]];fillColor=#fad7ac;strokeColor=#b46504;" parent="1" vertex="1">
          <mxGeometry x="1074" y="-876" width="160" height="30" as="geometry" />
        </mxCell>
        <mxCell id="9d43khAp4z9KavK-o5Pn-198" value="pko:ProcedureTargetType" style="rounded=0;whiteSpace=wrap;html=1;snapToPoint=1;points=[[0.1,0],[0.2,0],[0.3,0],[0.4,0],[0.5,0],[0.6,0],[0.7,0],[0.8,0],[0.9,0],[0,0.1],[0,0.3],[0,0.5],[0,0.7],[0,0.9],[0.1,1],[0.2,1],[0.3,1],[0.4,1],[0.5,1],[0.6,1],[0.7,1],[0.8,1],[0.9,1],[1,0.1],[1,0.3],[1,0.5],[1,0.7],[1,0.9]];fillColor=#b0e3e6;strokeColor=#0e8088;" parent="1" vertex="1">
          <mxGeometry x="510" y="-286" width="210" height="30" as="geometry" />
        </mxCell>
        <mxCell id="9d43khAp4z9KavK-o5Pn-199" value="" style="endArrow=classic;html=1;exitX=1;exitY=0.7;exitDx=0;exitDy=0;endSize=8;arcSize=0;rounded=0;edgeStyle=orthogonalEdgeStyle;entryX=0.7;entryY=0;entryDx=0;entryDy=0;" parent="1" source="9d43khAp4z9KavK-o5Pn-140" target="9d43khAp4z9KavK-o5Pn-198" edge="1">
          <mxGeometry width="50" height="50" relative="1" as="geometry">
            <mxPoint x="1053" y="-341" as="sourcePoint" />
            <mxPoint x="995" y="-536" as="targetPoint" />
            <Array as="points">
              <mxPoint x="657" y="-395" />
            </Array>
          </mxGeometry>
        </mxCell>
        <mxCell id="9d43khAp4z9KavK-o5Pn-200" value="&lt;div&gt;pko:hasProcedureTargetType&lt;/div&gt;" style="edgeLabel;html=1;align=center;verticalAlign=middle;resizable=0;points=[];" parent="9d43khAp4z9KavK-o5Pn-199" vertex="1" connectable="0">
          <mxGeometry x="-0.1912" y="-1" relative="1" as="geometry">
            <mxPoint x="44" y="32" as="offset" />
          </mxGeometry>
        </mxCell>
        <mxCell id="9d43khAp4z9KavK-o5Pn-201" value="" style="endArrow=classic;html=1;exitX=0;exitY=0.3;exitDx=0;exitDy=0;endSize=8;arcSize=0;rounded=0;edgeStyle=orthogonalEdgeStyle;entryX=0.1;entryY=0;entryDx=0;entryDy=0;" parent="1" source="9d43khAp4z9KavK-o5Pn-1" target="9d43khAp4z9KavK-o5Pn-9" edge="1">
          <mxGeometry width="50" height="50" relative="1" as="geometry">
            <mxPoint x="1053" y="-341" as="sourcePoint" />
            <mxPoint x="995" y="-536" as="targetPoint" />
            <Array as="points">
              <mxPoint x="970" y="-721" />
              <mxPoint x="970" y="-796" />
              <mxPoint x="1106" y="-796" />
            </Array>
          </mxGeometry>
        </mxCell>
        <mxCell id="9d43khAp4z9KavK-o5Pn-202" value="&lt;div&gt;pko:wasExtractedFrom&lt;/div&gt;" style="edgeLabel;html=1;align=center;verticalAlign=middle;resizable=0;points=[];" parent="9d43khAp4z9KavK-o5Pn-201" vertex="1" connectable="0">
          <mxGeometry x="-0.1912" y="-1" relative="1" as="geometry">
            <mxPoint x="-10" y="-26" as="offset" />
          </mxGeometry>
        </mxCell>
        <mxCell id="9d43khAp4z9KavK-o5Pn-203" value="pko:feedbackOnProcedure: string" style="rounded=0;whiteSpace=wrap;html=1;snapToPoint=1;points=[[0.1,0],[0.2,0],[0.3,0],[0.4,0],[0.5,0],[0.6,0],[0.7,0],[0.8,0],[0.9,0],[0,0.1],[0,0.3],[0,0.5],[0,0.7],[0,0.9],[0.1,1],[0.2,1],[0.3,1],[0.4,1],[0.5,1],[0.6,1],[0.7,1],[0.8,1],[0.9,1],[1,0.1],[1,0.3],[1,0.5],[1,0.7],[1,0.9]];" parent="1" vertex="1">
          <mxGeometry x="450" y="690" width="240" height="30" as="geometry" />
        </mxCell>
        <mxCell id="9d43khAp4z9KavK-o5Pn-204" value="pko:feedbackOnProcedureExecution: string" style="rounded=0;whiteSpace=wrap;html=1;snapToPoint=1;points=[[0.1,0],[0.2,0],[0.3,0],[0.4,0],[0.5,0],[0.6,0],[0.7,0],[0.8,0],[0.9,0],[0,0.1],[0,0.3],[0,0.5],[0,0.7],[0,0.9],[0.1,1],[0.2,1],[0.3,1],[0.4,1],[0.5,1],[0.6,1],[0.7,1],[0.8,1],[0.9,1],[1,0.1],[1,0.3],[1,0.5],[1,0.7],[1,0.9]];" parent="1" vertex="1">
          <mxGeometry x="450" y="720" width="240" height="30" as="geometry" />
        </mxCell>
        <mxCell id="9d43khAp4z9KavK-o5Pn-205" value="" style="endArrow=classic;html=1;endSize=8;arcSize=0;rounded=0;exitX=0.7;exitY=1;exitDx=0;exitDy=0;entryX=0;entryY=0.5;entryDx=0;entryDy=0;edgeStyle=orthogonalEdgeStyle;" parent="1" source="9d43khAp4z9KavK-o5Pn-204" target="9d43khAp4z9KavK-o5Pn-194" edge="1">
          <mxGeometry width="50" height="50" relative="1" as="geometry">
            <mxPoint x="850" y="685" as="sourcePoint" />
            <mxPoint x="810" y="825" as="targetPoint" />
            <Array as="points">
              <mxPoint x="620" y="750" />
              <mxPoint x="620" y="959" />
            </Array>
          </mxGeometry>
        </mxCell>
        <mxCell id="9d43khAp4z9KavK-o5Pn-206" value="&lt;div&gt;pko:wasProvidedBy&lt;/div&gt;" style="edgeLabel;html=1;align=center;verticalAlign=middle;resizable=0;points=[];" parent="9d43khAp4z9KavK-o5Pn-205" vertex="1" connectable="0">
          <mxGeometry x="-0.1912" y="-1" relative="1" as="geometry">
            <mxPoint x="114" y="22" as="offset" />
          </mxGeometry>
        </mxCell>
        <mxCell id="9d43khAp4z9KavK-o5Pn-207" value="" style="endArrow=classic;html=1;endSize=8;arcSize=0;rounded=0;exitX=0.8;exitY=1;exitDx=0;exitDy=0;entryX=0.7;entryY=0;entryDx=0;entryDy=0;" parent="1" source="9d43khAp4z9KavK-o5Pn-185" target="9d43khAp4z9KavK-o5Pn-194" edge="1">
          <mxGeometry width="50" height="50" relative="1" as="geometry">
            <mxPoint x="637" y="760" as="sourcePoint" />
            <mxPoint x="860" y="969" as="targetPoint" />
          </mxGeometry>
        </mxCell>
        <mxCell id="9d43khAp4z9KavK-o5Pn-208" value="&lt;div&gt;pko:wasAskedBy&lt;/div&gt;" style="edgeLabel;html=1;align=center;verticalAlign=middle;resizable=0;points=[];" parent="9d43khAp4z9KavK-o5Pn-207" vertex="1" connectable="0">
          <mxGeometry x="-0.1912" y="-1" relative="1" as="geometry">
            <mxPoint x="13" y="31" as="offset" />
          </mxGeometry>
        </mxCell>
        <mxCell id="9d43khAp4z9KavK-o5Pn-209" value="" style="endArrow=classic;html=1;endSize=8;arcSize=0;rounded=0;exitX=0;exitY=0.7;exitDx=0;exitDy=0;entryX=0.9;entryY=0;entryDx=0;entryDy=0;" parent="1" source="9d43khAp4z9KavK-o5Pn-164" target="9d43khAp4z9KavK-o5Pn-194" edge="1">
          <mxGeometry width="50" height="50" relative="1" as="geometry">
            <mxPoint x="1018" y="760" as="sourcePoint" />
            <mxPoint x="1017" y="954" as="targetPoint" />
          </mxGeometry>
        </mxCell>
        <mxCell id="9d43khAp4z9KavK-o5Pn-210" value="&lt;div&gt;pko:wasEncounteredBy&lt;/div&gt;" style="edgeLabel;html=1;align=center;verticalAlign=middle;resizable=0;points=[];" parent="9d43khAp4z9KavK-o5Pn-209" vertex="1" connectable="0">
          <mxGeometry x="-0.1912" y="-1" relative="1" as="geometry">
            <mxPoint x="-38" y="44" as="offset" />
          </mxGeometry>
        </mxCell>
        <mxCell id="9d43khAp4z9KavK-o5Pn-211" value="pro:RoleInTime" style="rounded=0;whiteSpace=wrap;html=1;snapToPoint=1;points=[[0.1,0],[0.2,0],[0.3,0],[0.4,0],[0.5,0],[0.6,0],[0.7,0],[0.8,0],[0.9,0],[0,0.1],[0,0.3],[0,0.5],[0,0.7],[0,0.9],[0.1,1],[0.2,1],[0.3,1],[0.4,1],[0.5,1],[0.6,1],[0.7,1],[0.8,1],[0.9,1],[1,0.1],[1,0.3],[1,0.5],[1,0.7],[1,0.9]];fillColor=#fad9d5;strokeColor=#ae4132;" parent="1" vertex="1">
          <mxGeometry x="590" y="-640" width="100" height="30" as="geometry" />
        </mxCell>
        <mxCell id="9d43khAp4z9KavK-o5Pn-212" value="" style="endArrow=classic;html=1;exitX=1;exitY=0.5;exitDx=0;exitDy=0;endSize=8;arcSize=0;rounded=0;entryX=0;entryY=0.7;entryDx=0;entryDy=0;dashed=1;" parent="1" source="9d43khAp4z9KavK-o5Pn-211" target="9d43khAp4z9KavK-o5Pn-47" edge="1">
          <mxGeometry width="50" height="50" relative="1" as="geometry">
            <mxPoint x="1100" y="-711" as="sourcePoint" />
            <mxPoint x="690" y="-536" as="targetPoint" />
          </mxGeometry>
        </mxCell>
        <mxCell id="9d43khAp4z9KavK-o5Pn-213" value="&lt;div&gt;pro:relatesTo&lt;/div&gt;" style="edgeLabel;html=1;align=center;verticalAlign=middle;resizable=0;points=[];" parent="9d43khAp4z9KavK-o5Pn-212" vertex="1" connectable="0">
          <mxGeometry x="-0.1912" y="-1" relative="1" as="geometry">
            <mxPoint x="-24" as="offset" />
          </mxGeometry>
        </mxCell>
        <mxCell id="9d43khAp4z9KavK-o5Pn-214" value="pro:Role" style="rounded=0;whiteSpace=wrap;html=1;snapToPoint=1;points=[[0.1,0],[0.2,0],[0.3,0],[0.4,0],[0.5,0],[0.6,0],[0.7,0],[0.8,0],[0.9,0],[0,0.1],[0,0.3],[0,0.5],[0,0.7],[0,0.9],[0.1,1],[0.2,1],[0.3,1],[0.4,1],[0.5,1],[0.6,1],[0.7,1],[0.8,1],[0.9,1],[1,0.1],[1,0.3],[1,0.5],[1,0.7],[1,0.9]];fillColor=#fad9d5;strokeColor=#ae4132;" parent="1" vertex="1">
          <mxGeometry x="440" y="-706" width="100" height="30" as="geometry" />
        </mxCell>
        <mxCell id="9d43khAp4z9KavK-o5Pn-215" value="" style="endArrow=classic;html=1;exitX=0.5;exitY=0;exitDx=0;exitDy=0;endSize=8;arcSize=0;rounded=0;entryX=1;entryY=0.5;entryDx=0;entryDy=0;edgeStyle=orthogonalEdgeStyle;dashed=1;" parent="1" source="9d43khAp4z9KavK-o5Pn-211" target="9d43khAp4z9KavK-o5Pn-214" edge="1">
          <mxGeometry width="50" height="50" relative="1" as="geometry">
            <mxPoint x="700" y="-615" as="sourcePoint" />
            <mxPoint x="1100" y="-615" as="targetPoint" />
          </mxGeometry>
        </mxCell>
        <mxCell id="9d43khAp4z9KavK-o5Pn-216" value="&lt;div&gt;pro:withRole&lt;/div&gt;" style="edgeLabel;html=1;align=center;verticalAlign=middle;resizable=0;points=[];" parent="9d43khAp4z9KavK-o5Pn-215" vertex="1" connectable="0">
          <mxGeometry x="-0.1912" y="-1" relative="1" as="geometry">
            <mxPoint x="20" y="22" as="offset" />
          </mxGeometry>
        </mxCell>
        <mxCell id="9d43khAp4z9KavK-o5Pn-217" value="prov:Agent" style="rounded=0;whiteSpace=wrap;html=1;snapToPoint=1;points=[[0.1,0],[0.2,0],[0.3,0],[0.4,0],[0.5,0],[0.6,0],[0.7,0],[0.8,0],[0.9,0],[0,0.1],[0,0.3],[0,0.5],[0,0.7],[0,0.9],[0.1,1],[0.2,1],[0.3,1],[0.4,1],[0.5,1],[0.6,1],[0.7,1],[0.8,1],[0.9,1],[1,0.1],[1,0.3],[1,0.5],[1,0.7],[1,0.9]];fillColor=#d0cee2;strokeColor=#56517e;" parent="1" vertex="1">
          <mxGeometry x="430" y="-580" width="100" height="30" as="geometry" />
        </mxCell>
        <mxCell id="9d43khAp4z9KavK-o5Pn-218" value="" style="endArrow=classic;html=1;exitX=1;exitY=0.5;exitDx=0;exitDy=0;endSize=8;arcSize=0;rounded=0;entryX=0.5;entryY=1;entryDx=0;entryDy=0;edgeStyle=orthogonalEdgeStyle;dashed=1;" parent="1" source="9d43khAp4z9KavK-o5Pn-217" target="9d43khAp4z9KavK-o5Pn-211" edge="1">
          <mxGeometry width="50" height="50" relative="1" as="geometry">
            <mxPoint x="650" y="-630" as="sourcePoint" />
            <mxPoint x="550" y="-681" as="targetPoint" />
          </mxGeometry>
        </mxCell>
        <mxCell id="9d43khAp4z9KavK-o5Pn-219" value="&lt;div&gt;pro:holdsRoleInTime&lt;/div&gt;" style="edgeLabel;html=1;align=center;verticalAlign=middle;resizable=0;points=[];" parent="9d43khAp4z9KavK-o5Pn-218" vertex="1" connectable="0">
          <mxGeometry x="-0.1912" y="-1" relative="1" as="geometry">
            <mxPoint x="-8" y="-1" as="offset" />
          </mxGeometry>
        </mxCell>
        <mxCell id="9d43khAp4z9KavK-o5Pn-220" value="time:TemporalUnit" style="rounded=0;whiteSpace=wrap;html=1;snapToPoint=1;points=[[0.1,0],[0.2,0],[0.3,0],[0.4,0],[0.5,0],[0.6,0],[0.7,0],[0.8,0],[0.9,0],[0,0.1],[0,0.3],[0,0.5],[0,0.7],[0,0.9],[0.1,1],[0.2,1],[0.3,1],[0.4,1],[0.5,1],[0.6,1],[0.7,1],[0.8,1],[0.9,1],[1,0.1],[1,0.3],[1,0.5],[1,0.7],[1,0.9]];fillColor=#dae8fc;strokeColor=#6c8ebf;" parent="1" vertex="1">
          <mxGeometry x="1180" y="43.940000000000055" width="130" height="30" as="geometry" />
        </mxCell>
        <mxCell id="9d43khAp4z9KavK-o5Pn-221" value="time:numericDuration date" style="rounded=0;whiteSpace=wrap;html=1;snapToPoint=1;points=[[0.1,0],[0.2,0],[0.3,0],[0.4,0],[0.5,0],[0.6,0],[0.7,0],[0.8,0],[0.9,0],[0,0.1],[0,0.3],[0,0.5],[0,0.7],[0,0.9],[0.1,1],[0.2,1],[0.3,1],[0.4,1],[0.5,1],[0.6,1],[0.7,1],[0.8,1],[0.9,1],[1,0.1],[1,0.3],[1,0.5],[1,0.7],[1,0.9]];dashed=1;fontColor=#000000;" parent="1" vertex="1">
          <mxGeometry x="1170" y="-46" width="180" height="30" as="geometry" />
        </mxCell>
        <mxCell id="9d43khAp4z9KavK-o5Pn-222" value="" style="endArrow=classic;html=1;endSize=8;arcSize=0;rounded=0;edgeStyle=orthogonalEdgeStyle;entryX=0.4;entryY=0;entryDx=0;entryDy=0;exitX=0.1;exitY=1;exitDx=0;exitDy=0;dashed=1;" parent="1" source="9d43khAp4z9KavK-o5Pn-221" target="9d43khAp4z9KavK-o5Pn-220" edge="1">
          <mxGeometry width="50" height="50" relative="1" as="geometry">
            <mxPoint x="1032" y="-191" as="sourcePoint" />
            <mxPoint x="1180" y="-51" as="targetPoint" />
            <Array as="points">
              <mxPoint x="1188" y="14" />
              <mxPoint x="1232" y="14" />
            </Array>
          </mxGeometry>
        </mxCell>
        <mxCell id="9d43khAp4z9KavK-o5Pn-223" value="&lt;div&gt;time:unitType&lt;/div&gt;" style="edgeLabel;html=1;align=center;verticalAlign=middle;resizable=0;points=[];" parent="9d43khAp4z9KavK-o5Pn-222" vertex="1" connectable="0">
          <mxGeometry x="-0.1912" y="-1" relative="1" as="geometry">
            <mxPoint y="-16" as="offset" />
          </mxGeometry>
        </mxCell>
        <mxCell id="9d43khAp4z9KavK-o5Pn-224" value="dct:PeriodOfTime" style="rounded=0;whiteSpace=wrap;html=1;snapToPoint=1;points=[[0.1,0],[0.2,0],[0.3,0],[0.4,0],[0.5,0],[0.6,0],[0.7,0],[0.8,0],[0.9,0],[0,0.1],[0,0.3],[0,0.5],[0,0.7],[0,0.9],[0.1,1],[0.2,1],[0.3,1],[0.4,1],[0.5,1],[0.6,1],[0.7,1],[0.8,1],[0.9,1],[1,0.1],[1,0.3],[1,0.5],[1,0.7],[1,0.9]];fillColor=#fad7ac;strokeColor=#b46504;" parent="1" vertex="1">
          <mxGeometry x="270" y="-640" width="130" height="30" as="geometry" />
        </mxCell>
        <mxCell id="9d43khAp4z9KavK-o5Pn-225" value="" style="endArrow=classic;html=1;exitX=0;exitY=0.5;exitDx=0;exitDy=0;endSize=8;arcSize=0;rounded=0;entryX=1;entryY=0.5;entryDx=0;entryDy=0;dashed=1;" parent="1" source="9d43khAp4z9KavK-o5Pn-211" target="9d43khAp4z9KavK-o5Pn-224" edge="1">
          <mxGeometry width="50" height="50" relative="1" as="geometry">
            <mxPoint x="650" y="-630" as="sourcePoint" />
            <mxPoint x="550" y="-681" as="targetPoint" />
          </mxGeometry>
        </mxCell>
        <mxCell id="9d43khAp4z9KavK-o5Pn-226" value="&lt;div&gt;dct:temporal&lt;/div&gt;" style="edgeLabel;html=1;align=center;verticalAlign=middle;resizable=0;points=[];" parent="9d43khAp4z9KavK-o5Pn-225" vertex="1" connectable="0">
          <mxGeometry x="-0.1912" y="-1" relative="1" as="geometry">
            <mxPoint x="-11" y="1" as="offset" />
          </mxGeometry>
        </mxCell>
        <mxCell id="9d43khAp4z9KavK-o5Pn-227" value="dcat:startDate date" style="rounded=0;whiteSpace=wrap;html=1;snapToPoint=1;points=[[0.1,0],[0.2,0],[0.3,0],[0.4,0],[0.5,0],[0.6,0],[0.7,0],[0.8,0],[0.9,0],[0,0.1],[0,0.3],[0,0.5],[0,0.7],[0,0.9],[0.1,1],[0.2,1],[0.3,1],[0.4,1],[0.5,1],[0.6,1],[0.7,1],[0.8,1],[0.9,1],[1,0.1],[1,0.3],[1,0.5],[1,0.7],[1,0.9]];dashed=1;" parent="1" vertex="1">
          <mxGeometry x="270" y="-610" width="130" height="30" as="geometry" />
        </mxCell>
        <mxCell id="9d43khAp4z9KavK-o5Pn-228" value="dcat:endDate date" style="rounded=0;whiteSpace=wrap;html=1;snapToPoint=1;points=[[0.1,0],[0.2,0],[0.3,0],[0.4,0],[0.5,0],[0.6,0],[0.7,0],[0.8,0],[0.9,0],[0,0.1],[0,0.3],[0,0.5],[0,0.7],[0,0.9],[0.1,1],[0.2,1],[0.3,1],[0.4,1],[0.5,1],[0.6,1],[0.7,1],[0.8,1],[0.9,1],[1,0.1],[1,0.3],[1,0.5],[1,0.7],[1,0.9]];dashed=1;" parent="1" vertex="1">
          <mxGeometry x="270" y="-580" width="130" height="36" as="geometry" />
        </mxCell>
        <mxCell id="9d43khAp4z9KavK-o5Pn-229" value="pko:MachineType" style="rounded=0;whiteSpace=wrap;html=1;snapToPoint=1;points=[[0.1,0],[0.2,0],[0.3,0],[0.4,0],[0.5,0],[0.6,0],[0.7,0],[0.8,0],[0.9,0],[0,0.1],[0,0.3],[0,0.5],[0,0.7],[0,0.9],[0.1,1],[0.2,1],[0.3,1],[0.4,1],[0.5,1],[0.6,1],[0.7,1],[0.8,1],[0.9,1],[1,0.1],[1,0.3],[1,0.5],[1,0.7],[1,0.9]];fillColor=#b0e3e6;strokeColor=#0e8088;" parent="1" vertex="1">
          <mxGeometry x="510" y="-201" width="210" height="30" as="geometry" />
        </mxCell>
        <mxCell id="9d43khAp4z9KavK-o5Pn-230" value="" style="endArrow=classic;html=1;exitX=1;exitY=0.7;exitDx=0;exitDy=0;endSize=8;arcSize=0;rounded=0;edgeStyle=orthogonalEdgeStyle;entryX=1;entryY=0.5;entryDx=0;entryDy=0;" parent="1" source="9d43khAp4z9KavK-o5Pn-140" target="9d43khAp4z9KavK-o5Pn-229" edge="1">
          <mxGeometry width="50" height="50" relative="1" as="geometry">
            <mxPoint x="630" y="-385" as="sourcePoint" />
            <mxPoint x="667" y="-276" as="targetPoint" />
            <Array as="points">
              <mxPoint x="780" y="-395" />
              <mxPoint x="780" y="-186" />
            </Array>
          </mxGeometry>
        </mxCell>
        <mxCell id="9d43khAp4z9KavK-o5Pn-231" value="&lt;div&gt;pko:hasMachineType&lt;/div&gt;" style="edgeLabel;html=1;align=center;verticalAlign=middle;resizable=0;points=[];" parent="9d43khAp4z9KavK-o5Pn-230" vertex="1" connectable="0">
          <mxGeometry x="-0.1912" y="-1" relative="1" as="geometry">
            <mxPoint x="-46" y="157" as="offset" />
          </mxGeometry>
        </mxCell>
        <mxCell id="9d43khAp4z9KavK-o5Pn-232" value="pko:Factory" style="rounded=0;whiteSpace=wrap;html=1;snapToPoint=1;points=[[0.1,0],[0.2,0],[0.3,0],[0.4,0],[0.5,0],[0.6,0],[0.7,0],[0.8,0],[0.9,0],[0,0.1],[0,0.3],[0,0.5],[0,0.7],[0,0.9],[0.1,1],[0.2,1],[0.3,1],[0.4,1],[0.5,1],[0.6,1],[0.7,1],[0.8,1],[0.9,1],[1,0.1],[1,0.3],[1,0.5],[1,0.7],[1,0.9]];fillColor=#b0e3e6;strokeColor=#0e8088;" parent="1" vertex="1">
          <mxGeometry x="310" y="-201" width="130" height="30" as="geometry" />
        </mxCell>
        <mxCell id="9d43khAp4z9KavK-o5Pn-233" value="" style="endArrow=block;html=1;fontColor=#000099;exitX=0.5;exitY=0;exitDx=0;exitDy=0;endFill=0;endSize=8;arcSize=0;rounded=0;entryX=0.5;entryY=1;entryDx=0;entryDy=0;" parent="1" source="9d43khAp4z9KavK-o5Pn-232" target="9d43khAp4z9KavK-o5Pn-141" edge="1">
          <mxGeometry width="50" height="50" relative="1" as="geometry">
            <mxPoint x="310" y="-2" as="sourcePoint" />
            <mxPoint x="395" y="-141" as="targetPoint" />
          </mxGeometry>
        </mxCell>
        <mxCell id="9d43khAp4z9KavK-o5Pn-234" value="dct:title string" style="rounded=0;whiteSpace=wrap;html=1;snapToPoint=1;points=[[0.1,0],[0.2,0],[0.3,0],[0.4,0],[0.5,0],[0.6,0],[0.7,0],[0.8,0],[0.9,0],[0,0.1],[0,0.3],[0,0.5],[0,0.7],[0,0.9],[0.1,1],[0.2,1],[0.3,1],[0.4,1],[0.5,1],[0.6,1],[0.7,1],[0.8,1],[0.9,1],[1,0.1],[1,0.3],[1,0.5],[1,0.7],[1,0.9]];dashed=1;" parent="1" vertex="1">
          <mxGeometry x="570" y="352" width="210" height="30" as="geometry" />
        </mxCell>
        <mxCell id="9d43khAp4z9KavK-o5Pn-235" value="dct:description string" style="rounded=0;whiteSpace=wrap;html=1;snapToPoint=1;points=[[0.1,0],[0.2,0],[0.3,0],[0.4,0],[0.5,0],[0.6,0],[0.7,0],[0.8,0],[0.9,0],[0,0.1],[0,0.3],[0,0.5],[0,0.7],[0,0.9],[0.1,1],[0.2,1],[0.3,1],[0.4,1],[0.5,1],[0.6,1],[0.7,1],[0.8,1],[0.9,1],[1,0.1],[1,0.3],[1,0.5],[1,0.7],[1,0.9]];dashed=1;" parent="1" vertex="1">
          <mxGeometry x="570" y="382" width="210" height="30" as="geometry" />
        </mxCell>
        <mxCell id="9d43khAp4z9KavK-o5Pn-236" value="dct:identifier string" style="rounded=0;whiteSpace=wrap;html=1;snapToPoint=1;points=[[0.1,0],[0.2,0],[0.3,0],[0.4,0],[0.5,0],[0.6,0],[0.7,0],[0.8,0],[0.9,0],[0,0.1],[0,0.3],[0,0.5],[0,0.7],[0,0.9],[0.1,1],[0.2,1],[0.3,1],[0.4,1],[0.5,1],[0.6,1],[0.7,1],[0.8,1],[0.9,1],[1,0.1],[1,0.3],[1,0.5],[1,0.7],[1,0.9]];dashed=1;" parent="1" vertex="1">
          <mxGeometry x="570" y="412" width="210" height="30" as="geometry" />
        </mxCell>
        <mxCell id="9d43khAp4z9KavK-o5Pn-237" value="dct:title string" style="rounded=0;whiteSpace=wrap;html=1;snapToPoint=1;points=[[0.1,0],[0.2,0],[0.3,0],[0.4,0],[0.5,0],[0.6,0],[0.7,0],[0.8,0],[0.9,0],[0,0.1],[0,0.3],[0,0.5],[0,0.7],[0,0.9],[0.1,1],[0.2,1],[0.3,1],[0.4,1],[0.5,1],[0.6,1],[0.7,1],[0.8,1],[0.9,1],[1,0.1],[1,0.3],[1,0.5],[1,0.7],[1,0.9]];dashed=1;" parent="1" vertex="1">
          <mxGeometry x="800" y="352" width="210" height="30" as="geometry" />
        </mxCell>
        <mxCell id="9d43khAp4z9KavK-o5Pn-238" value="dct:description string" style="rounded=0;whiteSpace=wrap;html=1;snapToPoint=1;points=[[0.1,0],[0.2,0],[0.3,0],[0.4,0],[0.5,0],[0.6,0],[0.7,0],[0.8,0],[0.9,0],[0,0.1],[0,0.3],[0,0.5],[0,0.7],[0,0.9],[0.1,1],[0.2,1],[0.3,1],[0.4,1],[0.5,1],[0.6,1],[0.7,1],[0.8,1],[0.9,1],[1,0.1],[1,0.3],[1,0.5],[1,0.7],[1,0.9]];dashed=1;" parent="1" vertex="1">
          <mxGeometry x="800" y="382" width="210" height="30" as="geometry" />
        </mxCell>
        <mxCell id="9d43khAp4z9KavK-o5Pn-239" value="dct:identifier string" style="rounded=0;whiteSpace=wrap;html=1;snapToPoint=1;points=[[0.1,0],[0.2,0],[0.3,0],[0.4,0],[0.5,0],[0.6,0],[0.7,0],[0.8,0],[0.9,0],[0,0.1],[0,0.3],[0,0.5],[0,0.7],[0,0.9],[0.1,1],[0.2,1],[0.3,1],[0.4,1],[0.5,1],[0.6,1],[0.7,1],[0.8,1],[0.9,1],[1,0.1],[1,0.3],[1,0.5],[1,0.7],[1,0.9]];dashed=1;" parent="1" vertex="1">
          <mxGeometry x="800" y="412" width="210" height="30" as="geometry" />
        </mxCell>
        <mxCell id="9d43khAp4z9KavK-o5Pn-28" value="" style="endArrow=classic;html=1;endSize=8;arcSize=0;rounded=0;edgeStyle=orthogonalEdgeStyle;entryX=0.2;entryY=0;entryDx=0;entryDy=0;exitX=1;exitY=0.5;exitDx=0;exitDy=0;startArrow=oval;startFill=0;" parent="1" source="9d43khAp4z9KavK-o5Pn-52" target="9d43khAp4z9KavK-o5Pn-22" edge="1">
          <mxGeometry width="50" height="50" relative="1" as="geometry">
            <mxPoint x="1398" y="-211" as="sourcePoint" />
            <mxPoint x="1478" y="-20" as="targetPoint" />
            <Array as="points">
              <mxPoint x="1572" y="-216" />
            </Array>
          </mxGeometry>
        </mxCell>
        <mxCell id="9d43khAp4z9KavK-o5Pn-29" value="&lt;div&gt;pko:hasFirstStep&lt;/div&gt;" style="edgeLabel;html=1;align=center;verticalAlign=middle;resizable=0;points=[];" parent="9d43khAp4z9KavK-o5Pn-28" vertex="1" connectable="0">
          <mxGeometry x="-0.1912" y="-1" relative="1" as="geometry">
            <mxPoint x="-53" y="-1" as="offset" />
          </mxGeometry>
        </mxCell>
        <mxCell id="9d43khAp4z9KavK-o5Pn-23" value="" style="endArrow=classic;html=1;exitX=1;exitY=0.9;exitDx=0;exitDy=0;endSize=8;arcSize=0;rounded=0;edgeStyle=orthogonalEdgeStyle;entryX=0.2;entryY=0;entryDx=0;entryDy=0;startArrow=oval;startFill=0;" parent="1" source="9d43khAp4z9KavK-o5Pn-52" target="9d43khAp4z9KavK-o5Pn-22" edge="1">
          <mxGeometry width="50" height="50" relative="1" as="geometry">
            <mxPoint x="1190" y="-192.00000000000045" as="sourcePoint" />
            <mxPoint x="1458" y="-231" as="targetPoint" />
            <Array as="points">
              <mxPoint x="1572" y="-204" />
            </Array>
          </mxGeometry>
        </mxCell>
        <mxCell id="9d43khAp4z9KavK-o5Pn-24" value="&lt;div&gt;pko:hasStep&lt;/div&gt;" style="edgeLabel;html=1;align=center;verticalAlign=middle;resizable=0;points=[];" parent="9d43khAp4z9KavK-o5Pn-23" vertex="1" connectable="0">
          <mxGeometry x="-0.1912" y="-1" relative="1" as="geometry">
            <mxPoint x="-42" y="2" as="offset" />
          </mxGeometry>
        </mxCell>
      </root>
    </mxGraphModel>
  </diagram>
</mxfile>
